<!-- Generator: Adobe Illustrator 18.1.1, SVG Export Plug-In  -->
<svg version="1.1"
   xmlns="http://www.w3.org/2000/svg" xmlns:xlink="http://www.w3.org/1999/xlink" xmlns:a="http://ns.adobe.com/AdobeSVGViewerExtensions/3.0/"
   x="0px" y="0px" width="18px" height="18px" viewBox="0 0 18 18" enable-background="new 0 0 18 18" xml:space="preserve">
<defs>
</defs>
<path d="M3.6,7.8c1.4,2.8,3.8,5.1,6.6,6.6l2.1-2.1c0.2-0.2,0.4-0.3,0.7-0.3h4c0.6,0,1,0.4,1,1v4c0,0.6-0.4,1-1,1
  C7.6,18,0,10.4,0,1c0-0.6,0.4-1,1-1h4c0.6,0,1,0.4,1,1v4c0,0.3-0.1,0.5-0.3,0.7L3.6,7.8z"/>
</svg>
