<?xml version="1.0" encoding="utf-8"?>
<!-- Generator: Adobe Illustrator 18.1.1, SVG Export Plug-In . SVG Version: 6.00 Build 0)  -->
<svg version="1.1" id="Layer_1" xmlns="http://www.w3.org/2000/svg" xmlns:xlink="http://www.w3.org/1999/xlink" x="0px" y="0px"
	 width="842.7px" height="127.9px" viewBox="-415 -27.6 842.7 127.9" enable-background="new -415 -27.6 842.7 127.9"
	 xml:space="preserve">
<g>
	<polygon fill="#08887B" points="427.7,38.1 294.2,38.1 277.5,-3.7 277.5,-27.6 427.7,-27.6 	"/>
</g>
<g enable-background="new    ">
	<path fill="#455A64" d="M-234.4-3.5l20.3,58.7h0.3l20.5-58.7h20.9v79.6h-16V52.4l1.5-35.2l-0.3-0.1l-21.3,59h-10.8l-21.2-58.7
		l-0.3,0.1l1.5,35v23.7h-16V-3.4L-234.4-3.5L-234.4-3.5z"/>
	<path fill="#455A64" d="M-110.6,59h-27.9l-5.4,17.2H-160l27.4-79.6h16.3L-89,76.2h-16.2L-110.6,59z M-134.6,46.5h20.1l-9.8-31.3
		h-0.3L-134.6,46.5z"/>
	<path fill="#455A64" d="M-52.5,42.9h-8.9v33.3h-16V-3.5h16V29h7l21.1-32.5h19.5l-26.8,37.1l29,42.5h-19.5L-52.5,42.9z"/>
	<path fill="#455A64" d="M15.3,63.9h35.5v12.3H-0.7V-3.4h16C15.3-3.4,15.3,63.9,15.3,63.9z"/>
	<path fill="#455A64" d="M113.1,41.2h-33v22.7h38.5v12.3H64.1V-3.4h54.4V8.9H80.1v20h33V41.2z"/>
	<path fill="#455A64" d="M148.6,44.3v31.8h-16V-3.5h30c9.1,0,16.2,2.1,21.3,6.2c5.2,4.1,7.6,9.9,7.6,17.3c0,4.1-1.1,7.6-3.2,10.6
		c-2.2,3-5.3,5.4-9.5,7.2c4.7,1.3,8.1,3.7,10.1,7c2.1,3.2,3.1,7.3,3.1,12v5.8c0,2.2,0.3,4.6,0.9,7c0.6,2.4,1.6,4.2,3.1,5.4v1.1
		h-16.4c-1.4-1.1-2.4-3.2-2.9-5.8c-0.5-2.8-0.7-5.4-0.7-7.7v-5.6c0-4-1.1-7.1-3.2-9.3c-2.2-2.2-5.3-3.3-9.2-3.3
		C163.6,44.3,148.6,44.3,148.6,44.3z M148.6,32.1h13.8c4.5,0,7.8-1,10-2.9c2.2-1.9,3.3-4.7,3.3-8.4c0-3.6-1.1-6.5-3.3-8.7
		c-2.2-2.1-5.4-3.2-9.7-3.2h-14V32.1z"/>
	<path fill="#455A64" d="M253.6,59h-27.9l-5.4,17.2h-16.2l27.4-79.6h16.3l27.2,79.6H259L253.6,59z M229.7,46.5h20.1l-9.8-31.3h-0.4
		L229.7,46.5z"/>
</g>
<g class="org" enable-background="new    ">
	<path fill="#FFFFFF" d="M308.6,18.9h-7.5v-7.2h7.5V18.9z"/>
	<path fill="#FFFFFF" d="M316.6,1.9c0-5,1.3-9.1,4.1-12.2c2.8-3.2,6.5-4.8,11.2-4.8c4.8,0,8.6,1.6,11.3,4.8
		c2.8,3.2,4.1,7.3,4.1,12.2v0.7c0,5.1-1.3,9.2-4.1,12.3c-2.7,3.2-6.5,4.7-11.2,4.7c-4.8,0-8.5-1.6-11.3-4.8
		c-2.7-3.2-4.1-7.3-4.1-12.2V1.9z M324.1,2.5c0,3.2,0.7,5.9,1.9,7.9s3.2,3.1,5.9,3.1c2.6,0,4.6-1.1,5.8-3.1c1.3-2.1,2-4.7,2-7.9V1.9
		c0-3.2-0.7-5.8-2-7.8c-1.3-2.1-3.2-3.2-5.9-3.2c-2.6,0-4.6,1.1-5.8,3.2s-1.9,4.7-1.9,7.8V2.5z"/>
	<path fill="#FFFFFF" d="M370.5-7.8l-3.2-0.1c-1.4,0-2.7,0.3-3.6,1c-1,0.6-1.7,1.5-2.3,2.6v23.2h-7.6v-33.5h6.9l0.5,4.9
		c0.9-1.7,1.9-3.1,3.2-4c1.3-1,2.9-1.4,4.6-1.4c0.5,0,0.9,0,1.2,0.1c0.4,0.1,0.8,0.2,1.1,0.3L370.5-7.8z"/>
	<path fill="#FFFFFF" d="M374.3,2.6c0-5.4,1.1-9.7,3.5-12.9c2.3-3.2,5.5-4.9,9.7-4.9c2,0,3.7,0.4,5.3,1.2c1.5,0.9,2.8,2.1,3.8,3.7
		l0.8-4.4h6.2v33.5c0,4.3-1.3,7.6-4,9.9c-2.7,2.4-6.4,3.5-11.3,3.5c-1.6,0-3.3-0.2-5.3-0.7c-1.9-0.5-3.6-1.1-5.2-1.8l1.6-5.9
		c1.2,0.7,2.6,1.1,4.1,1.5c1.5,0.4,3.1,0.6,4.6,0.6c2.7,0,4.7-0.6,5.9-1.7c1.2-1.1,1.9-3,1.9-5.4v-3.4c-1.1,1.3-2.3,2.4-3.7,3.1
		s-3.1,1.1-5,1.1c-4.1,0-7.4-1.5-9.7-4.5c-2.3-3-3.5-6.9-3.5-11.8L374.3,2.6L374.3,2.6z M381.9,3.3c0,3.1,0.6,5.5,1.8,7.4
		c1.2,1.8,3.2,2.8,5.7,2.8c1.6,0,3-0.4,4.1-1.1c1.1-0.7,2-1.6,2.7-2.9V-5.1c-0.7-1.2-1.6-2.2-2.7-2.9c-1.1-0.7-2.4-1.1-4-1.1
		c-2.6,0-4.5,1.1-5.7,3.2c-1.2,2.2-1.9,5-1.9,8.4V3.3z"/>
</g>
<g>
	<g>
		<g>
			<polygon fill="#08887B" points="-315.9,56.9 -290.1,83.6 -290.1,-27.2 -315.5,-1.9 			"/>
			<polygon fill="#08887B" points="-326.7,-27.5 -351.7,-2.2 -376.5,-27.4 -413.8,-27.5 -352.2,32.3 -289.9,-27.3 			"/>
		</g>
		<linearGradient id="SVGID_1_" gradientUnits="userSpaceOnUse" x1="-352.129" y1="27.8241" x2="-290.0131" y2="27.8241">
			<stop  offset="0" style="stop-color:#036D5F"/>
			<stop  offset="1" style="stop-color:#08887B"/>
		</linearGradient>
		<polygon fill="url(#SVGID_1_)" points="-352.1,32.2 -315.5,-2.1 -316,57 -290.2,83.1 -290,-27.4 -326.9,-27.4 -352,-2.5 		"/>
	</g>
	<polygon fill="#F26F21" points="-352.8,74.8 -328,100 -290.7,100.3 -352.8,40.4 -414.6,99.3 -378,99.6 	"/>
	<linearGradient id="SVGID_2_" gradientUnits="userSpaceOnUse" x1="-415" y1="44.7202" x2="-352.8223" y2="44.7202">
		<stop  offset="0" style="stop-color:#F26F21"/>
		<stop  offset="1" style="stop-color:#D75C27"/>
	</linearGradient>
	<polygon fill="url(#SVGID_2_)" points="-414.7,99.6 -378,99.6 -353.1,74.8 -352.8,40.4 -388.8,74.1 -388.7,15.3 -415,-10.1 	"/>
</g>
</svg>
