<!-- Generator: Adobe Illustrator 18.1.1, SVG Export Plug-In  -->
<svg version="1.1"
   xmlns="http://www.w3.org/2000/svg" xmlns:xlink="http://www.w3.org/1999/xlink" xmlns:a="http://ns.adobe.com/AdobeSVGViewerExtensions/3.0/"
   x="0px" y="0px" width="18px" height="24.8px" viewBox="0 0 18 24.8" enable-background="new 0 0 18 24.8" xml:space="preserve">
<defs>
</defs>
<path d="M9,5.6V9l4.5-4.5L9,0v3.4c-5,0-9,4-9,9c0,1.8,0.5,3.4,1.4,4.8L3,15.5c-0.5-0.9-0.8-2-0.8-3.2
  C2.3,8.7,5.3,5.6,9,5.6z M16.6,7.6L15,9.2c0.5,0.9,0.8,2,0.8,3.2c0,3.7-3,6.8-6.8,6.8v-3.4l-4.5,4.5L9,24.8v-3.4c5,0,9-4,9-9
  C18,10.6,17.5,9,16.6,7.6z"/>
</svg>
