<!-- Generator: Adobe Illustrator 18.1.1, SVG Export Plug-In  -->
<svg version="1.1"
   xmlns="http://www.w3.org/2000/svg" xmlns:xlink="http://www.w3.org/1999/xlink" xmlns:a="http://ns.adobe.com/AdobeSVGViewerExtensions/3.0/"
   x="0px" y="0px" viewBox="0 0 305.1 396.6" enable-background="new 0 0 305.1 396.6"
   xml:space="preserve">
<defs>
</defs>
<g>
  <path d="M229.4,30.1L92.6,166.9c-1.1,1.1-1.9,2.4-2.3,3.9L78.6,216c-0.8,3,0.1,6.1,2.3,8.3c1.6,1.6,3.8,2.5,6.1,2.5
    c0.7,0,1.5-0.1,2.2-0.3l45.2-11.7c1.5-0.4,2.8-1.2,3.9-2.3L275.1,75.8c0,0,0,0,0,0l0,0l27.5-27.5c3.4-3.4,3.4-8.8,0-12.2L269.1,2.5
    C267.5,0.9,265.3,0,263,0c-2.3,0-4.5,0.9-6.1,2.5L229.4,30.1L229.4,30.1L229.4,30.1z M127.7,198.7L99,206.2l7.5-28.7L235.5,48.4
    l21.3,21.3L127.7,198.7z M263,20.8l21.3,21.3L269,57.5l-21.3-21.3L263,20.8z"/>
  <path d="M296.5,93.5c-4.8,0-8.6,3.9-8.6,8.6v277.2H17.3V49.5h159.7c4.8,0,8.6-3.9,8.6-8.6s-3.9-8.6-8.6-8.6H8.6
    c-4.8,0-8.6,3.9-8.6,8.6V388c0,4.8,3.9,8.6,8.6,8.6h287.9c4.8,0,8.6-3.9,8.6-8.6V102.1C305.1,97.3,301.3,93.5,296.5,93.5z"/>
</g>
</svg>
