<!-- Generator: Adobe Illustrator 18.1.1, SVG Export Plug-In  -->
<svg version="1.1"
   xmlns="http://www.w3.org/2000/svg" xmlns:xlink="http://www.w3.org/1999/xlink" xmlns:a="http://ns.adobe.com/AdobeSVGViewerExtensions/3.0/"
   x="0px" y="0px" viewBox="0 0 383.9 486" enable-background="new 0 0 383.9 486"
   xml:space="preserve">
<defs>
</defs>
<g>
  <g>
    <g>
      <path d="M191.4,263.4c56.7,0,102.2-45.5,102.2-102.2S248.1,58.9,191.4,58.9S89.2,104.5,89.2,161.2
        S134.7,263.4,191.4,263.4z M191.4,80.2c45.5,0,82,36.4,82,82s-36.4,82-82,82s-82-36.4-82-82S145.9,80.2,191.4,80.2z"/>
      <path d="M382.7,423.3l-73.9-149.8c10.1-11.1,15.2-25.3,15.2-40.5c0-11.1,4-21.3,12.1-28.3
        c23.3-23.3,23.3-62.7,0-86c-8.1-8.1-12.1-18.2-12.1-28.3c0-33.4-27.3-60.7-60.7-60.7c-11.1,0-21.3-4-28.3-12.1
        c-23.3-23.3-62.7-23.3-86,0c-8.1,8.1-18.2,12.1-28.3,12.1c-33.4,0-60.7,27.3-60.7,60.7c0,11.1-4,21.3-12.1,28.3
        c-23.3,23.3-23.3,62.7,0,86c8.1,8.1,12.1,18.2,12.1,28.3c0,15.2,6.1,29.3,15.2,40.5L1.2,423.3c-2,3-1,7.1,0,10.1
        c2,3,5.1,4,9.1,5.1h53.6L96.3,482c2,3,5.1,4,8.1,4h1c3,0,7.1-2,8.1-6.1l76.9-155.8c1,0,1,0,2,0c1,0,1,0,2,0l76.9,155.8
        c2,3,5.1,5.1,8.1,6.1h1c3,0,6.1-1,8.1-4l32.4-43.5h53.6c4,0,7.1-2,9.1-5.1C383.7,430.3,384.7,426.3,382.7,423.3z M60.9,132.8
        c11.1-11.1,18.2-26.3,18.2-43.5c0-22.3,18.2-40.5,40.5-40.5c16.2,0,31.4-6.1,43.5-18.2c8.1-8.1,18.2-12.1,28.3-12.1
        s21.3,4,28.3,12.1c11.1,11.1,26.3,18.2,43.5,18.2c22.3,0,40.5,18.2,40.5,40.5c0,16.2,6.1,31.4,18.2,43.5
        c8.1,8.1,12.1,18.2,12.1,28.3s-4,21.3-12.1,28.3c-11.1,11.1-18.2,26.3-18.2,43.5c0,12.1-6.1,23.3-14.2,30.4l0,0c-2,2-4,3-6.1,4
        l0,0c-2,1-4,2-6.1,3c-1,0-2,1-2,1c-1,0-3,1-4,1c-2,0-4,1-7.1,1h-1c-16.2,0-31.4,6.1-43.5,18.2l0,0c-2,2-3,3-5.1,4c-1,1-2,1-3,2
        c-1,1-2,1-3,2c-1,1-3,1-4,2c-1,0-1,0-2,0c-2,1-3,1-5.1,1l0,0c-4,1-8.1,1-12.1,0l0,0c-2,0-4-1-6.1-1h-1c-2-1-3-1-4-2c-1,0-2-1-3-1
        c-1-1-2-1-3-2c-2-1-3-2-4-4l-1-1c-11.1-11.1-26.3-18.2-43.5-18.2h-1c-2,0-4,0-6.1-1c-2,0-3-1-4-1c-1,0-2,0-2-1
        c-4-2-8.1-4-12.1-7.1l0,0c-9.1-7.1-14.2-18.2-14.2-30.4c0-16.2-6.1-31.4-18.2-43.5C45.7,174.3,45.7,149,60.9,132.8z M101.4,455.6
        l-25.3-34.4c-2-3-5.1-4-8.1-4l0,0H25.5l64.8-130.5c4,2,9.1,4,14.2,5.1l0,0c2,1,4,1,6.1,1h1c2,0,5.1,0,7.1,0l0,0
        c11.1,0,21.3,4,28.3,12.1c3,3,6.1,5.1,9.1,7.1c0,0,1,0,1,1c3,2,5.1,3,8.1,4c1,0,2,1,2,1L101.4,455.6z M314.9,417.2L314.9,417.2
        c-3,0-6.1,1-8.1,4l-25.3,34.4L213.7,320c1,0,1-1,2-1c3-1,6.1-3,8.1-4c0,0,1,0,1-1c3-2,6.1-5.1,9.1-7.1
        c8.1-8.1,18.2-12.1,28.3-12.1c0,0,0,0,1,0c2,0,4,0,6.1,0h1c2,0,4-1,6.1-1l0,0c5.1-1,9.1-3,14.2-5.1l64.8,130.5L314.9,417.2z"/>
    </g>
  </g>
</g>
</svg>
