<!-- Generator: Adobe Illustrator 18.1.1, SVG Export Plug-In  -->
<svg version="1.1"
   xmlns="http://www.w3.org/2000/svg" xmlns:xlink="http://www.w3.org/1999/xlink" xmlns:a="http://ns.adobe.com/AdobeSVGViewerExtensions/3.0/"
   x="0px" y="0px" width="18px" height="23.6px" viewBox="0 0 18 23.6" enable-background="new 0 0 18 23.6" xml:space="preserve">
<defs>
</defs>
<path d="M15.8,7.9h-1.1V5.6C14.6,2.5,12.1,0,9,0S3.4,2.5,3.4,5.6v2.3H2.3C1,7.9,0,8.9,0,10.1v11.3
  c0,1.2,1,2.3,2.3,2.3h13.5c1.2,0,2.3-1,2.3-2.3V10.1C18,8.9,17,7.9,15.8,7.9z M9,18c-1.2,0-2.3-1-2.3-2.3s1-2.3,2.3-2.3
  s2.3,1,2.3,2.3S10.2,18,9,18z M12.5,7.9h-7V5.6c0-1.9,1.6-3.5,3.5-3.5s3.5,1.6,3.5,3.5V7.9z"/>
</svg>
