<?xml version="1.0" encoding="utf-8"?>
<!-- Generator: Adobe Illustrator 18.0.0, SVG Export Plug-In . SVG Version: 6.00 Build 0)  -->
<!DOCTYPE svg PUBLIC "-//W3C//DTD SVG 1.1//EN" "http://www.w3.org/Graphics/SVG/1.1/DTD/svg11.dtd">
<svg version="1.1" id="Layer_1" xmlns="http://www.w3.org/2000/svg" xmlns:xlink="http://www.w3.org/1999/xlink" x="0px" y="0px"
	 width="28px" height="28px" viewBox="0 0 28 28" enable-background="new 0 0 28 28" xml:space="preserve">
<path d="M22.2,8.9c-0.6,0.3-1.3,0.4-1.9,0.5C21,9,21.5,8.4,21.7,7.6c-0.7,0.4-1.4,0.7-2.1,0.8
	c-0.6-0.7-1.5-1.1-2.5-1.1c-1.9,0-3.4,1.5-3.4,3.4c0,0.3,0,0.5,0.1,0.8C11.1,11.3,8.6,10,6.9,8C6.7,8.4,6.5,9,6.5,9.6
	c0,1.2,0.6,2.2,1.5,2.8c-0.6,0-1.1-0.2-1.5-0.4c0,0,0,0,0,0c0,1.6,1.2,3,2.7,3.3c-0.3,0.1-0.6,0.1-0.9,0.1c-0.2,0-0.4,0-0.6-0.1
	c0.4,1.3,1.7,2.3,3.1,2.3c-1.2,0.9-2.6,1.4-4.2,1.4c-0.3,0-0.5,0-0.8,0c1.5,1,3.3,1.5,5.2,1.5c6.2,0,9.6-5.1,9.6-9.6
	c0-0.1,0-0.3,0-0.4C21.2,10.2,21.7,9.6,22.2,8.9z"/>
</svg>
