<?xml version="1.0" encoding="utf-8"?>
<!-- Generator: Adobe Illustrator 18.0.0, SVG Export Plug-In . SVG Version: 6.00 Build 0)  -->
<!DOCTYPE svg PUBLIC "-//W3C//DTD SVG 1.1//EN" "http://www.w3.org/Graphics/SVG/1.1/DTD/svg11.dtd">
<svg version="1.1" id="Layer_1" xmlns="http://www.w3.org/2000/svg" xmlns:xlink="http://www.w3.org/1999/xlink" x="0px" y="0px"
	 width="28px" height="28px" viewBox="0 0 28 28" enable-background="new 0 0 28 28" xml:space="preserve">
<path d="M21,15.6c0.1-0.5,0.2-1,0.2-1.5c0-3.9-3.2-7-7-7c-0.4,0-0.8,0-1.2,0.1c-0.6-0.4-1.4-0.6-2.2-0.6
	c-2.3,0-4.1,1.8-4.1,4.1c0,0.8,0.2,1.5,0.6,2.1C7.1,13.1,7,13.6,7,14.1c0,3.9,3.2,7,7,7c0.4,0,0.9,0,1.3-0.1
	c0.6,0.3,1.2,0.5,1.9,0.5c2.3,0,4.1-1.8,4.1-4.1C21.4,16.8,21.2,16.1,21,15.6z M17.7,17.4c-0.3,0.5-0.8,0.8-1.4,1.1
	c-0.6,0.3-1.4,0.4-2.2,0.4c-1,0-1.9-0.2-2.5-0.5c-0.5-0.3-0.9-0.6-1.2-1c-0.3-0.4-0.4-0.9-0.4-1.3c0-0.3,0.1-0.5,0.3-0.7
	c0.2-0.2,0.4-0.3,0.7-0.3c0.2,0,0.5,0.1,0.6,0.2c0.2,0.1,0.3,0.3,0.4,0.6c0.1,0.3,0.3,0.5,0.4,0.7c0.1,0.2,0.3,0.3,0.6,0.5
	c0.3,0.1,0.6,0.2,1,0.2c0.6,0,1.1-0.1,1.4-0.4c0.4-0.2,0.5-0.5,0.5-0.9c0-0.3-0.1-0.5-0.3-0.7c-0.2-0.2-0.4-0.3-0.8-0.4
	c-0.3-0.1-0.8-0.2-1.3-0.3c-0.7-0.2-1.4-0.3-1.8-0.6c-0.5-0.2-0.9-0.5-1.2-0.9c-0.3-0.4-0.5-0.9-0.5-1.4c0-0.5,0.2-1,0.5-1.4
	c0.3-0.4,0.8-0.7,1.4-0.9c0.6-0.2,1.3-0.3,2.1-0.3c0.6,0,1.2,0.1,1.6,0.2c0.5,0.1,0.9,0.3,1.2,0.6c0.3,0.2,0.5,0.5,0.7,0.8
	c0.1,0.3,0.2,0.5,0.2,0.8c0,0.3-0.1,0.5-0.3,0.7c-0.2,0.2-0.4,0.3-0.7,0.3c-0.3,0-0.5-0.1-0.6-0.2c-0.1-0.1-0.3-0.3-0.4-0.6
	c-0.2-0.3-0.4-0.6-0.6-0.8c-0.2-0.2-0.6-0.3-1.2-0.3c-0.5,0-0.9,0.1-1.2,0.3c-0.3,0.2-0.4,0.4-0.4,0.7c0,0.2,0,0.3,0.1,0.4
	c0.1,0.1,0.2,0.2,0.4,0.3c0.2,0.1,0.4,0.2,0.6,0.2c0.2,0.1,0.5,0.1,1,0.2c0.6,0.1,1.1,0.3,1.6,0.4c0.5,0.1,0.9,0.3,1.2,0.6
	c0.3,0.2,0.6,0.5,0.8,0.8c0.2,0.3,0.3,0.8,0.3,1.2C18.2,16.5,18,17,17.7,17.4z"/>
</svg>
