<?xml version="1.0" encoding="utf-8"?>
<!-- Generator: Adobe Illustrator 18.0.0, SVG Export Plug-In . SVG Version: 6.00 Build 0)  -->
<!DOCTYPE svg PUBLIC "-//W3C//DTD SVG 1.1//EN" "http://www.w3.org/Graphics/SVG/1.1/DTD/svg11.dtd">
<svg version="1.1" id="Layer_1" xmlns="http://www.w3.org/2000/svg" xmlns:xlink="http://www.w3.org/1999/xlink" x="0px" y="0px"
	 width="28px" height="28px" viewBox="0 0 28 28" enable-background="new 0 0 28 28" xml:space="preserve">
<g>
	<path d="M21.9,12.6h-2.5v-2.5c0-0.2-0.2-0.3-0.3-0.3h-0.7c-0.2,0-0.3,0.2-0.3,0.3v2.5h-2.5c-0.2,0-0.3,0.2-0.3,0.3
		v0.7c0,0.2,0.2,0.3,0.3,0.3H18v2.5c0,0.2,0.2,0.3,0.3,0.3H19c0.2,0,0.3-0.2,0.3-0.3V14h2.5c0.2,0,0.3-0.2,0.3-0.3V13
		C22.2,12.8,22,12.6,21.9,12.6z"/>
	<path d="M13.5,14.8c-0.5-0.4-1-0.9-1-1.1c0-0.3,0-0.4,0.7-1c0.9-0.7,1.4-1.6,1.4-2.5c0-0.9-0.3-1.6-0.7-2.2h0.3
		c0.1,0,0.1,0,0.2-0.1l1-0.7c0.1-0.1,0.2-0.2,0.1-0.4c0-0.1-0.2-0.2-0.3-0.2h-4.4c-0.5,0-1,0.1-1.4,0.2c-1.6,0.5-2.7,1.9-2.7,3.3
		c0,2,1.5,3.5,3.6,3.5c0,0.2-0.1,0.3-0.1,0.5c0,0.3,0.1,0.6,0.2,0.9c0,0,0,0-0.1,0c-1.9,0-3.7,1-4.4,2.4c-0.2,0.4-0.3,0.7-0.3,1.1
		c0,0.4,0.1,0.7,0.3,1c0.4,0.7,1.3,1.3,2.5,1.6c0.6,0.2,1.3,0.2,2,0.2c0.6,0,1.2-0.1,1.8-0.2c1.7-0.5,2.8-1.8,2.8-3.2
		C15.2,16.5,14.8,15.6,13.5,14.8z M8.1,18c0-1,1.3-1.9,2.8-1.9h0c0.3,0,0.6,0.1,0.9,0.1c0.1,0.1,0.2,0.1,0.3,0.2
		c0.7,0.5,1.1,0.8,1.3,1.3c0,0.1,0,0.2,0,0.4c0,1.3-1,1.9-2.8,1.9C9.2,20,8.1,19.1,8.1,18z M9.4,8.3c0.2-0.3,0.5-0.4,0.9-0.4l0,0
		c1,0,1.9,1.1,2.1,2.4c0.1,0.7-0.1,1.4-0.4,1.8c-0.2,0.3-0.5,0.4-0.9,0.4h0h0c-0.9,0-1.9-1.1-2-2.4C8.9,9.4,9,8.7,9.4,8.3z"/>
</g>
</svg>
