<?xml version="1.0" encoding="utf-8"?>
<!-- Generator: Adobe Illustrator 18.0.0, SVG Export Plug-In . SVG Version: 6.00 Build 0)  -->
<!DOCTYPE svg PUBLIC "-//W3C//DTD SVG 1.1//EN" "http://www.w3.org/Graphics/SVG/1.1/DTD/svg11.dtd">
<svg version="1.1" id="Layer_1" xmlns="http://www.w3.org/2000/svg" xmlns:xlink="http://www.w3.org/1999/xlink" x="0px" y="0px"
	 width="202.3px" height="113.5px" viewBox="0 0 202.3 113.5" enable-background="new 0 0 202.3 113.5" xml:space="preserve">
<g>
	<g enable-background="new    ">
		<path fill="#78909C" d="M31,59.6c1.8-0.5,3.8-0.1,6.1,1c3,2.1,4.4,4.5,4.3,7.2c0.1,2.6-1.2,4.8-3.9,6.5L37,74.6l0,0.1
			c1.3,0.6,2.3,1.7,3,3.1c0.2,0.6,0.3,1.1,0.4,1.7l0,0.1c0.1,1.6-0.5,3-1.7,4.2c-1.4,1.4-3.3,2.2-5.7,2.3c-2.8,0.1-5-0.7-6.7-2.4
			c-0.3-0.3-0.4-0.7-0.4-1l0-0.1c0-0.1,0-0.2,0.1-0.2c0,0,0.5,0.2,1.3,0.7c1.7,1,3.7,1.5,6.1,1.4c2-0.1,3.7-0.8,5.1-2.1
			c0.7-0.8,1.1-1.8,1-2.9c-0.1-1.6-1.1-2.9-3-3.9c-0.3-0.1-0.7-0.3-1.1-0.4c-0.9,0.2-1.7,0.4-2.6,0.4c-1.4,0.1-2.3-0.1-2.7-0.4
			c-0.1-0.1-0.1-0.1-0.1-0.2l0-0.1c0-0.3,0.3-0.6,0.9-0.9c0.5-0.2,1.1-0.3,1.7-0.4c0.9,0,1.7,0,2.5,0.3c1.7-0.5,3.1-1.3,4.1-2.3
			c0.9-1,1.4-2.1,1.3-3.2l0-0.4c-0.3-1.8-1.2-3.4-2.8-4.8c-1.6-1.3-3.6-2-5.7-2c-0.3,0-0.7,0-0.9,0l0.4,0c-2,0.1-3.3,1-4.1,2.7
			c-0.1,0.4-0.1,0.7-0.1,1l0,0.1c0.1,1.2,0.8,2.5,2.2,3.6c0.7,0.5,1,0.8,1,0.8l0,0c0,0.1-0.2,0.2-0.4,0.2c-0.8,0-1.8-0.5-3-1.5
			c-0.7-0.8-1.1-1.7-1.2-2.7l0-0.1c-0.1-1.4,0.5-2.7,1.7-4.1C28.6,60.2,29.7,59.7,31,59.6z"/>
		<path fill="#78909C" d="M44.9,82.9c0.2,4.3,0.5,7.7,0.9,10.3c0,0.1,0,0.2,0,0.2c0,0-0.1,0.1-0.3,0c-0.8-0.2-1.3-0.8-1.4-1.8
			c-0.2-1.6-0.4-3.5-0.5-5.7c-0.2-5.1-0.1-9.3,0.3-12.5c0.1-0.7,0.4-1.2,0.9-1.4C45,72,45,72,45.1,72l0,0.2
			c-0.1,1.2-0.2,2.7-0.2,4.6c0.5-2.4,1.5-3.7,2.8-3.7c0.4,0,0.8,0.1,1.2,0.3c1.1,0.6,1.7,1.8,1.7,3.7c0,0.7,0,1.5-0.2,2.4
			c-0.3,1.3-0.7,2.4-1.3,3.1c-0.6,0.8-1.3,1.2-2.1,1.2C46.1,83.9,45.4,83.6,44.9,82.9z M45,80c0,1.9,0.4,2.8,1.4,2.8
			c0.5,0,1-0.4,1.4-1c0.6-0.8,0.9-1.8,1.1-3.2c0.1-0.6,0.1-1.1,0.1-1.7c0-0.8-0.1-1.5-0.4-2c-0.2-0.5-0.4-0.8-0.6-0.9
			c-0.6-0.1-1.2,0.4-1.8,1.5C45.5,76.9,45.1,78.3,45,80z"/>
		<path fill="#78909C" d="M56,81.7c-0.5,1.4-1.2,2.1-2.1,2.1c-0.5,0-0.9-0.2-1.3-0.6c-0.7-0.8-1-2.2-1.1-4.2c-0.1-1.6,0.1-3.3,0.4-5
			c0.1-0.7,0.4-1.1,0.9-1.2c0.1,0,0.2,0,0.3,0c0,0,0,0.1,0,0.2c-0.2,1.7-0.3,3.4-0.3,5.3c0.1,1.6,0.3,2.7,0.6,3.4
			c0.3,0.7,0.7,1.1,1,1c0.7-0.1,1.1-1.4,1.2-3.8c0-1.2,0.2-2.7,0.3-4.5c0.2-0.8,0.5-1.2,1-1.3c0.2-0.1,0.3,0,0.3,0.2
			c-0.2,1.9-0.2,4-0.1,6.2c0,0.9,0.2,2.2,0.4,4s0.3,3.1,0.4,4c0.1,1.9-0.5,3.4-1.7,4.4c-0.5,0.5-1.1,0.7-1.6,0.7
			c-0.6,0-1.2-0.2-1.7-0.8c-0.5-0.5-0.9-1.2-1.1-2.1c-0.1-0.5-0.2-0.9-0.2-1.2c0-0.4,0-0.7,0.2-1c0-0.1,0.1-0.2,0.2-0.2
			c0.1,0,0.1,0.1,0.2,0.2c0.4,1.3,0.8,2.2,1.4,2.9c0.6,0.7,1.1,1,1.7,0.9c1,0,1.4-1.1,1.4-3c0-0.5-0.1-1.1-0.2-1.8
			C56.3,85,56.1,83.4,56,81.7z"/>
		<path fill="#78909C" d="M64,72.3c0.6,0.3,0.9,0.8,0.9,1.3c0,0.1-0.1,1-0.4,2.5c-0.3,1.4-0.4,2.6-0.4,3.6l0,0.3c0,0.1,0,0.1,0,0.2
			c0,0.1,0,0.1,0,0.2l0,0.3c0.1,1.2,0.4,1.8,1,1.8l0.1,0c0.8,0,1.5-1.2,2-3.6c0-0.2,0.1-0.3,0.1-0.3c0.2,0.1,0.3,0.2,0.3,0.4l0,0.1
			c0.1,1.4-0.1,2.5-0.6,3.3c-0.4,0.8-1.2,1.2-2.3,1.2c-1.1,0-1.7-1.3-2-3.7l0-0.5c0-0.4,0-0.8,0.1-1.3c-0.9,0.6-1.7,0.8-2.3,0.7
			c-0.7-0.1-1.1-0.4-1.4-0.8c-0.3-0.5-0.4-0.7-0.4-0.8l-0.1-0.7c-0.2-0.8-0.1-1.9,0.4-3.2c0.4-0.5,0.8-0.8,1.3-0.8l0,0.1
			c-0.5,1.8-0.7,3.2-0.4,4.1l0.1,0.2c0,0.4,0.3,0.5,0.7,0.5l0,0c1.4-0.1,2.2-1,2.5-2.6c0.2-1.6,0.4-2.5,0.5-2.5L64,72.3z"/>
		<path fill="#78909C" d="M72.4,71.4L72.4,71.4c0.1,0,0.1,0,0.1,0.1c-0.2,3.1-0.2,5.6-0.2,7.3c0.1,1.5,0.3,2.5,0.7,3.1
			c0.1,0.1,0.3,0.2,0.4,0.2l0.1,0c0.4,0,0.9-0.8,1.3-2.4c0.1-0.2,0.1-0.7,0.2-1.4l0.1,0c0.3,0.3,0.4,0.6,0.4,0.9l0,0.5
			c0.1,1.7-0.3,2.7-1.2,3.1c-0.1,0.1-0.3,0.1-0.5,0.1c-1.2,0-2-0.6-2.6-2c-0.1-0.3-0.2-1-0.4-2c0-0.3,0-0.6,0-1l0,0
			c-1.6,0.2-2.4,0.3-2.4,0.4c0.2,2.8,0.4,4.5,0.4,4.8c0,0.1,0,0.1-0.1,0.2l-0.1,0c-0.9-0.1-1.3-0.5-1.3-1.2
			c-0.1-0.5-0.2-1.2-0.2-1.9l0-1.2c-0.1-2.7,0-4.9,0.5-6.6c0.3-0.5,0.6-0.7,0.9-0.8l0.1,0c0,0,0.1,0,0.1,0.1
			c-0.2,1.9-0.3,3.6-0.2,4.9l0,0.3c0,0,0.1,0,0.1,0c1.5-0.2,2.4-0.3,2.5-0.3c0.2-3.1,0.4-4.7,0.6-4.7C72,71.5,72.2,71.4,72.4,71.4z"
			/>
		<path fill="#78909C" d="M76.4,79.2c0.2,1.4,0.6,2.1,1.2,2.3c0.2,0.1,0.4,0.1,0.6,0.1c0.7,0,1.4-0.4,2.1-1c0.7-0.7,1.2-1.5,1.5-2.6
			c0-0.1,0.1-0.2,0.1-0.2c0,0,0.1,0,0.1,0.1c0.1,0.3,0.1,0.7,0,1c-0.1,1-0.5,1.9-1.1,2.5c-0.6,0.6-1.3,1-2.2,1c-0.4,0-0.9,0-1.3-0.2
			c-0.6-0.2-1.1-0.7-1.6-1.3c-0.6-0.8-0.9-1.8-0.9-3c0-0.5,0-0.9,0.1-1.4c0.2-1.5,0.6-2.7,1.2-3.6c0.5-0.8,1.2-1.2,1.8-1.2
			c0.3,0,0.6,0.1,0.9,0.3c0.8,0.5,1.3,1.4,1.3,2.4c0,0.4,0,0.8-0.1,1.2c-0.2,1-0.7,1.8-1.4,2.5C78,78.8,77.3,79.1,76.4,79.2z
			 M76.4,78.6c0.9-0.2,1.5-0.9,2-1.9c0.4-0.9,0.6-1.8,0.5-2.7c0-0.7-0.2-1.1-0.5-1.2c-0.4-0.1-0.8,0.3-1.2,1.2
			c-0.5,1-0.8,2.1-0.8,3.4C76.3,77.9,76.4,78.4,76.4,78.6z"/>
		<path fill="#78909C" d="M90.6,70.6l0.1,0.1c-0.1,2.1-0.1,3.5-0.1,4.3c0.1,1.2,0.1,1.9,0.1,2.2l0,0.1c1-0.6,1.8-2,2.4-4.1
			c0.2-1.2,0.3-2,0.3-2.6l0.1,0l0,0c0.4,0,0.6,0.3,0.7,0.9c0,1-0.2,2.4-0.8,4.1c-0.3,0.8-0.8,1.6-1.5,2.4c0,0.5,0.3,1.2,0.7,2.2
			c0.4,0.6,0.9,0.9,1.7,0.8c0.8-0.1,1.5-1.1,2-2.8l0.3-1.2l0,0c0.2,0.1,0.3,0.4,0.4,0.8c0.1,1.8-0.5,3.1-1.7,3.9
			c-0.4,0.2-0.8,0.3-1.1,0.3c-1.2,0-2.2-0.6-2.9-1.9c-0.2-0.4-0.3-0.7-0.3-0.9l0,0l0,0.1c0,0.4,0.2,1.3,0.5,2.9
			c0,0.1-0.1,0.2-0.2,0.2c-0.4-0.1-0.8-0.4-1.2-0.8c-0.3-0.6-0.5-1.6-0.6-3l-0.1-2c-0.1-1.8,0-3.4,0.1-5c0.2-0.4,0.4-0.7,0.7-0.9
			C90.4,70.6,90.5,70.6,90.6,70.6z"/>
		<path fill="#78909C" d="M102.4,75.7c0,0.4,0,0.7,0,1c0.1,1.5-0.2,2.6-0.6,3.5c-0.5,0.9-1.1,1.3-1.9,1.4c-1,0-1.9-0.4-2.5-1.4
			c-0.6-0.8-0.9-1.8-0.9-3c0-1,0.1-2.1,0.4-3.2c0.4-1.3,1-2.2,1.7-2.6c0.3-0.2,0.7-0.1,1,0.2c0.5-0.1,1,0.1,1.5,0.7
			c0.5,0.6,0.9,1.5,1.2,2.5c0.1-0.1,0.3-0.2,0.5-0.4c0.2-0.2,0.2-0.2,0.3,0C103,74.9,102.8,75.3,102.4,75.7z M101.2,76.2
			c-0.7,0.1-1.3-0.2-1.8-0.7c-0.5-0.5-0.7-1.1-0.8-1.8c-0.5,1.1-0.7,2.3-0.6,3.7c0,1,0.2,1.8,0.6,2.5c0.3,0.5,0.6,0.8,0.9,0.9
			c0.5,0.1,0.9-0.3,1.3-1.2C101.1,78.7,101.3,77.6,101.2,76.2z M99.7,72.3c-0.2,0-0.3,0.2-0.3,0.6c0,0.5,0.2,0.9,0.5,1.4
			c0.3,0.5,0.8,0.8,1.3,0.9C100.8,73.3,100.4,72.3,99.7,72.3z"/>
		<path fill="#78909C" d="M105.2,80.5c0.2,4.3,0.5,7.7,0.9,10.3c0,0.1,0,0.2,0,0.2c0,0-0.1,0.1-0.3,0c-0.8-0.2-1.3-0.8-1.4-1.8
			c-0.2-1.6-0.4-3.5-0.5-5.7c-0.2-5.1-0.1-9.3,0.3-12.5c0.1-0.7,0.4-1.2,0.9-1.4c0.1-0.1,0.2-0.1,0.3,0l0,0.2
			c-0.1,1.2-0.2,2.7-0.2,4.6c0.5-2.4,1.5-3.7,2.8-3.7c0.4,0,0.8,0.1,1.2,0.3c1.1,0.6,1.7,1.8,1.7,3.7c0,0.7,0,1.5-0.2,2.4
			c-0.3,1.3-0.7,2.4-1.3,3.1c-0.6,0.8-1.3,1.2-2.1,1.2C106.4,81.5,105.7,81.1,105.2,80.5z M105.4,77.6c0,1.9,0.4,2.8,1.4,2.8
			c0.5,0,1-0.4,1.4-1c0.6-0.8,0.9-1.8,1.1-3.2c0.1-0.6,0.1-1.1,0.1-1.7c0-0.8-0.1-1.5-0.4-2c-0.2-0.5-0.4-0.8-0.6-0.9
			c-0.6-0.1-1.2,0.4-1.8,1.5C105.8,74.4,105.4,75.9,105.4,77.6z"/>
		<path fill="#78909C" d="M113.3,70.3L113.3,70.3c0.1,0,0.1,0,0.1,0.1c-0.3,1.7-0.4,3.5-0.3,5.4l0,0.2c0.1,2.2,0.4,3.5,1,4
			c0.2,0.1,0.4,0.2,0.6,0.2c0.7,0,1.1-1.5,1.3-4.3l0.3-4.1c0.1-0.4,0.3-0.7,0.5-0.9c0.3-0.2,0.5-0.2,0.6-0.2l0,0
			c0.1,0,0.1,0,0.1,0.1l0,0c-0.2,2.1-0.3,4-0.2,5.5c0.1,2.5,0.5,3.7,1.2,3.7c0.3,0,0.7-0.5,1-1.6c0.1-0.3,0.2-0.7,0.3-1.3
			c0-0.2,0.1-0.4,0-0.6c0,0,0,0,0.1,0c0.1,0,0.2,0.2,0.3,0.6c0.1,0.2,0.1,0.4,0.1,0.6l0,0.1c0.1,1.3-0.2,2.3-0.7,2.8
			c-0.1,0.1-0.2,0.1-0.2,0.2c-0.2,0.1-0.5,0.2-0.7,0.2c-1,0-1.7-0.6-2.2-1.9l0,0c-0.1,0.3-0.2,0.6-0.3,0.9c-0.5,1-1.2,1.5-2,1.5
			c-1.1,0-1.8-0.8-2.2-2.5c-0.1-0.7-0.2-1.5-0.3-2.3c-0.1-1.8,0.1-3.5,0.5-5.2C112.5,70.6,112.8,70.3,113.3,70.3z"/>
		<path fill="#78909C" d="M127,76.1c0.1,0.2,0.1,0.7,0,1.3c-0.2,1-0.5,1.8-1.1,2.4c-0.6,0.7-1.3,1.1-2.2,1.1
			c-1.2,0.1-2.2-0.4-2.9-1.4c-0.6-0.8-0.9-1.9-1-3.2c0-0.3,0-0.7,0-1c0.1-1.7,0.4-3,1-4c0.6-0.9,1.2-1.4,1.9-1.4
			c0.3,0,0.6,0.1,0.8,0.2c1,0.6,1.5,1.3,1.5,2.4c0,0.6-0.1,1.1-0.4,1.5c-0.3,0.4-0.6,0.6-0.9,0.7c-0.1,0-0.1,0-0.2-0.1
			c0.2-0.7,0.3-1.4,0.3-2.1c0-1.1-0.3-1.6-0.7-1.7s-0.8,0.5-1.3,1.6c-0.5,1.2-0.7,2.4-0.7,3.8c0,2.2,0.5,3.5,1.3,3.9
			c0.2,0.1,0.4,0.1,0.7,0.1c0.7,0,1.4-0.5,2-1.3c0.6-0.8,1.1-1.6,1.3-2.5C126.8,75.9,126.9,75.9,127,76.1z"/>
		<path fill="#78909C" d="M139.4,76.4c0.1,2.4-0.5,3.6-1.8,3.5c-0.8,0-1.4-0.4-2-1.1c-0.6-0.8-0.9-2-1-3.8c0-0.5,0-1.2,0-2
			c0-0.9,0-1.5,0-1.8c0-0.2-0.1-0.4-0.1-0.4c-0.1,0-0.1,0.1-0.2,0.3c-0.9,2.5-1.3,5.3-1.3,8.5c0,0.2-0.1,0.3-0.3,0.3
			c-0.8-0.1-1.3-0.5-1.4-1.4c-0.1-1.6-0.3-3.7-0.6-6.3c0-0.3-0.1-0.4-0.2-0.4s-0.2,0.1-0.3,0.3c-1.1,2.6-1.7,5.3-1.7,8.3
			c0,0.2-0.1,0.3-0.3,0.3c-0.7-0.1-1.1-0.4-1.2-0.9c-0.1-0.7-0.2-1.7-0.3-2.8c-0.1-3.4-0.1-5.7,0.3-7c0.1-0.5,0.4-0.8,0.9-1
			c0.1-0.1,0.2-0.1,0.3,0c0,0,0.1,0.1,0,0.2c-0.2,1.8-0.3,4.3-0.1,7.7c0.4-2.5,1-4.5,2-6.1c0.2-0.4,0.5-0.6,0.8-0.6
			c0.2,0,0.4,0.1,0.6,0.3c0.4,0.4,0.7,1.1,0.8,2.1c0.1,0.6,0.2,1.6,0.2,3.1c0.3-2.2,0.8-4.1,1.6-5.7c0.2-0.5,0.5-0.7,0.7-0.7
			c0.2,0,0.4,0.1,0.6,0.3c0.5,0.5,0.8,1.3,0.8,2.5c0,2.2,0,3.4,0,3.8c0.1,2.2,0.4,3.4,1,3.5c0.4,0.1,0.8-0.2,1.1-0.9
			c0.3-0.7,0.5-1.6,0.6-2.6c0-0.3,0.1-0.3,0.2-0.1C139.3,75.6,139.4,76,139.4,76.4z"/>
		<path fill="#78909C" d="M143.1,78.2c-0.5,1.4-1.2,2.1-2.1,2.1c-0.5,0-0.9-0.2-1.2-0.6c-0.7-0.8-1-2.2-1.1-4.2
			c-0.1-1.6,0.1-3.3,0.4-5c0.1-0.7,0.4-1.1,0.9-1.2c0.1,0,0.2,0,0.3,0c0,0,0,0.1,0,0.2c-0.2,1.7-0.3,3.4-0.3,5.3
			c0.1,1.6,0.3,2.7,0.6,3.4c0.3,0.7,0.7,1.1,1,1c0.7-0.1,1.1-1.4,1.2-3.8c0-1.2,0.2-2.7,0.3-4.5c0.2-0.8,0.5-1.2,1-1.3
			c0.2-0.1,0.3,0,0.3,0.2c-0.2,1.9-0.2,4-0.1,6.2c0,0.9,0.2,2.2,0.4,4c0.2,1.8,0.3,3.1,0.4,4c0.1,1.9-0.5,3.4-1.7,4.4
			c-0.5,0.5-1.1,0.7-1.6,0.7c-0.6,0-1.2-0.2-1.7-0.8c-0.5-0.5-0.9-1.2-1.1-2.1c-0.1-0.5-0.2-0.9-0.2-1.2c0-0.4,0-0.7,0.2-1
			c0-0.1,0.1-0.2,0.2-0.2c0.1,0,0.1,0.1,0.2,0.2c0.4,1.3,0.8,2.2,1.4,2.9c0.6,0.7,1.1,1,1.7,0.9c1,0,1.4-1.1,1.4-3
			c0-0.5-0.1-1.1-0.2-1.8C143.4,81.4,143.3,79.8,143.1,78.2z"/>
		<path fill="#78909C" d="M148.1,58.3c0.5,0,0.9,0.4,1.4,1.3c0.3,0.7,0.5,1.7,0.5,2.9c0.1,2.2-0.2,4.4-1,6.6
			c-0.1,0.3-0.3,0.6-0.4,0.9l0,0c0.2-0.1,0.4-0.2,0.6-0.2c0.9,0,1.6,0.7,2.4,2.1c0.4,1,0.7,2.1,0.7,3.3c0.1,1.9-0.5,3.3-1.6,4.3
			c-0.5,0.3-1,0.5-1.5,0.5l-0.1,0c-0.5,0-0.9-0.1-1.2-0.5c0.1,0.5,0.2,0.9,0.2,1.2c0,0.1-0.1,0.1-0.1,0.1l0,0
			c-0.2,0-0.5-0.1-0.8-0.4c-0.4-0.4-0.5-0.9-0.6-1.6c-0.2-1.8-0.4-3.8-0.5-6l-0.1-1.8c0,0,0-0.1,0-0.2c0,0,0-0.1,0-0.1l0-1.1
			c-0.1-1.9,0-4.2,0.4-7.1c0.1-0.8,0.3-1.4,0.4-1.7C147,59.2,147.5,58.3,148.1,58.3z M147.3,70.3l0,0.6c1.2-2.1,1.7-5,1.5-8.9
			c-0.1-1.6-0.2-2.4-0.5-2.4c-0.3,0-0.6,1.4-0.9,4.1C147.2,65.7,147.2,67.9,147.3,70.3z M147.5,75.3L147.5,75.3
			c0.1,1.8,0.5,3,1.3,3.7c0.2,0.2,0.4,0.2,0.6,0.2l0,0c0.6,0,1-0.7,1.3-2c0.1-0.6,0.1-1.3,0.1-1.9c-0.1-1.7-0.5-3.1-1.1-4.1
			c-0.3-0.3-0.5-0.5-0.7-0.5c-0.7,0-1.2,0.9-1.4,2.7C147.5,74.1,147.5,74.7,147.5,75.3z"/>
		<path fill="#78909C" d="M158.4,70.1c0.2-0.4,0.4-0.6,0.8-0.7c0.1,0,0.2,0,0.2,0c0,0,0,0.1,0,0.2c-0.3,1.6-0.4,3.2-0.4,4.8
			c0.1,2.3,0.4,3.4,0.9,3.5c0.3,0.1,0.6-0.2,1-0.9c0.4-0.7,0.6-1.5,0.7-2.5c0-0.1,0.1-0.2,0.2,0c0.2,0.2,0.3,0.6,0.3,1.1
			c0,1-0.1,1.8-0.4,2.4c-0.3,0.6-0.8,0.9-1.3,0.9c-0.3,0-0.6-0.1-1-0.2c-0.7-0.3-1.1-1-1.4-2.1c-0.3,1.8-1,2.7-2.2,2.8
			c-0.9,0-1.7-0.3-2.2-1.1c-0.5-0.7-0.7-1.5-0.8-2.5c0-0.7,0-1.5,0.2-2.3c0.3-1.5,0.8-2.6,1.4-3.5c0.6-0.8,1.2-1.2,1.9-1.2
			C157.3,68.7,158,69.2,158.4,70.1z M157.9,72.3c0-1.7-0.3-2.6-1-2.7c-0.4-0.1-0.9,0.4-1.4,1.4c-0.5,1-0.9,2.1-1.1,3.4
			c-0.1,0.6-0.1,1.2-0.1,1.7c0.1,1.6,0.4,2.4,1.1,2.5c0.5,0.1,1-0.5,1.5-1.6C157.6,75.8,157.9,74.2,157.9,72.3z"/>
		<path fill="#78909C" d="M166.8,67.5L166.8,67.5c0.1,0,0.1,0,0.1,0.1c-0.2,3.1-0.2,5.6-0.2,7.3c0.1,1.5,0.3,2.5,0.7,3.1
			c0.1,0.1,0.3,0.2,0.4,0.2l0.1,0c0.4,0,0.9-0.8,1.3-2.4c0.1-0.2,0.1-0.7,0.2-1.4l0.1,0c0.3,0.3,0.4,0.6,0.4,0.9l0,0.5
			c0.1,1.7-0.3,2.7-1.2,3.1c-0.1,0.1-0.3,0.1-0.5,0.1c-1.2,0-2-0.6-2.6-2c-0.1-0.3-0.2-1-0.4-2c0-0.3,0-0.6,0-1l0,0
			c-1.6,0.2-2.4,0.3-2.4,0.4c0.2,2.8,0.4,4.5,0.4,4.8c0,0.1,0,0.1-0.1,0.2l-0.1,0c-0.9-0.1-1.3-0.5-1.3-1.2
			c-0.1-0.5-0.2-1.2-0.2-1.9l0-1.2c-0.1-2.7,0-4.9,0.5-6.6c0.3-0.5,0.6-0.7,0.9-0.8l0.1,0c0,0,0.1,0,0.1,0.1
			c-0.2,1.9-0.3,3.6-0.2,4.9l0,0.3c0,0,0.1,0,0.1,0c1.5-0.2,2.4-0.3,2.5-0.3c0.2-3.1,0.4-4.7,0.6-4.7
			C166.3,67.7,166.6,67.5,166.8,67.5z"/>
		<path fill="#78909C" d="M174.6,67.2L174.6,67.2c0.1,0,0.1,0,0.1,0.1c-0.2,3.1-0.2,5.6-0.2,7.3c0.1,1.5,0.3,2.5,0.7,3.1
			c0.1,0.1,0.3,0.2,0.4,0.2l0.1,0c0.4,0,0.9-0.8,1.3-2.4c0.1-0.2,0.1-0.7,0.2-1.4l0.1,0c0.3,0.3,0.4,0.6,0.4,0.9l0,0.5
			c0.1,1.7-0.3,2.7-1.2,3.1c-0.1,0.1-0.3,0.1-0.5,0.1c-1.2,0-2-0.6-2.6-2c-0.1-0.3-0.2-1-0.4-2c0-0.3,0-0.6,0-1l0,0
			c-1.6,0.2-2.4,0.3-2.4,0.4c0.2,2.8,0.4,4.5,0.4,4.8c0,0.1,0,0.1-0.1,0.2l-0.1,0c-0.9-0.1-1.3-0.5-1.3-1.2
			c-0.1-0.5-0.2-1.2-0.2-1.9l0-1.2c-0.1-2.7,0.1-4.9,0.5-6.6c0.3-0.5,0.6-0.7,0.9-0.8l0.1,0c0,0,0.1,0,0.1,0.1
			c-0.2,1.9-0.3,3.6-0.2,4.9l0,0.3c0,0,0.1,0,0.1,0c1.5-0.2,2.4-0.3,2.5-0.3c0.2-3.1,0.4-4.7,0.6-4.7
			C174.2,67.4,174.5,67.2,174.6,67.2z"/>
		<path fill="#78909C" d="M180.7,67.2l0.3,0c0.4,0,0.8,0.2,1.1,0.8l0,0c0-0.2,0.1-0.4,0.3-0.5c0.2-0.2,0.3-0.2,0.4-0.2l0,0
			c0.1,0,0.1,0.1,0.2,0.2c-0.1,1.3-0.1,2.7-0.1,4.3c0,1.2,0,2,0,2.4c0,0.9,0.2,1.7,0.5,2.3c0.3,0.4,0.5,0.6,0.7,0.6
			c0.6,0,1-0.5,1.2-1.4c0.1-0.7,0.2-1.3,0.2-1.8l0-0.1c0,0,0-0.1,0.1-0.2c0.5,0.2,0.7,0.5,0.7,1l0,0.3c0,0.8-0.1,1.6-0.5,2.1
			c-0.1,0.2-0.2,0.4-0.3,0.5c-0.5,0.4-1,0.6-1.3,0.6l-0.3,0c-0.7,0-1.3-0.6-1.7-1.9l0,0c-0.4,1.3-1.1,2-2,2l-0.3,0
			c-0.6,0-1.3-0.4-2-1.2c-0.4-0.6-0.7-1.1-0.7-1.4c0-0.7,0.1-1,0.4-1.1l0.1,0c0.1,0,0.3,0.4,0.5,1c0.1,0.3,0.4,0.6,0.9,1.1
			c0.4,0.3,0.8,0.5,1,0.5c0.9,0,1.5-1.2,1.7-3.4l0,0l0,0c-0.2,0.5-0.5,0.8-0.9,1c-0.1,0.1-0.3,0.1-0.5,0.1c-0.7,0-1.3-0.3-1.7-0.9
			c-0.3-0.5-0.5-0.9-0.5-1.2c-0.1-0.2-0.1-0.6-0.1-1c-0.1-1.4,0.3-2.7,1.1-3.8C179.6,67.5,180.1,67.2,180.7,67.2z M179.2,72.1
			c0,1,0.3,1.7,0.9,2l0.1,0c0.5,0,1-0.8,1.4-2.3c0.3-1.3,0.5-2.1,0.4-2.5c0-0.6-0.3-0.9-0.7-1.1c-0.1,0-0.1,0-0.2,0
			c-0.3,0-0.7,0.2-1.1,0.6c-0.4,0.5-0.7,1-0.8,1.6C179.2,71,179.2,71.6,179.2,72.1z"/>
	</g>
	<g enable-background="new    ">
		<path fill="#78909C" d="M56.2,97L56.2,97c0.1,0,0.1,0,0.1,0.1c-0.2,3.1-0.2,5.6-0.2,7.3c0.1,1.5,0.3,2.5,0.7,3.1
			c0.1,0.1,0.3,0.2,0.4,0.2l0.1,0c0.4,0,0.9-0.8,1.3-2.4c0.1-0.2,0.1-0.7,0.2-1.4l0.1,0c0.3,0.3,0.4,0.6,0.4,0.9l0,0.5
			c0.1,1.7-0.3,2.7-1.2,3.1c-0.1,0.1-0.3,0.1-0.5,0.1c-1.2,0-2-0.6-2.6-2c-0.1-0.3-0.2-1-0.4-2c0-0.3,0-0.6,0-1l0,0
			c-1.6,0.2-2.4,0.3-2.4,0.4c0.2,2.8,0.4,4.5,0.4,4.8c0,0.1,0,0.1-0.1,0.2l-0.1,0c-0.9-0.1-1.3-0.5-1.3-1.2
			c-0.1-0.5-0.2-1.2-0.2-1.9l0-1.2c-0.1-2.7,0-4.9,0.5-6.6c0.3-0.5,0.6-0.7,0.9-0.8l0.1,0c0,0,0.1,0,0.1,0.1
			c-0.2,1.9-0.3,3.6-0.2,4.9l0,0.3c0,0,0.1,0,0.1,0c1.5-0.2,2.4-0.3,2.5-0.3c0.2-3.1,0.4-4.7,0.6-4.7C55.8,97.2,56.1,97,56.2,97z"/>
		<path fill="#78909C" d="M64.3,99c0.2-0.4,0.4-0.6,0.8-0.7c0.1,0,0.2,0,0.2,0s0,0.1,0,0.2c-0.3,1.6-0.4,3.2-0.4,4.8
			c0.1,2.3,0.4,3.4,0.9,3.5c0.3,0.1,0.6-0.2,1-0.9c0.4-0.7,0.6-1.5,0.7-2.5c0-0.1,0.1-0.2,0.2,0c0.2,0.2,0.3,0.6,0.3,1.1
			c0,1-0.1,1.8-0.4,2.4c-0.3,0.6-0.8,0.9-1.3,0.9c-0.3,0-0.6-0.1-1-0.2c-0.7-0.3-1.1-1-1.4-2.1c-0.3,1.8-1,2.7-2.2,2.8
			c-0.9,0-1.7-0.3-2.2-1.1c-0.5-0.7-0.7-1.5-0.8-2.5c0-0.7,0-1.5,0.2-2.3c0.3-1.5,0.8-2.6,1.4-3.5c0.6-0.8,1.2-1.2,1.9-1.2
			C63.1,97.6,63.8,98,64.3,99z M63.7,101.2c0-1.7-0.3-2.6-1-2.7c-0.4-0.1-0.9,0.4-1.4,1.4s-0.9,2.1-1.1,3.4
			c-0.1,0.6-0.1,1.2-0.1,1.7c0.1,1.6,0.4,2.4,1.1,2.5c0.5,0.1,1-0.4,1.5-1.6C63.4,104.6,63.7,103.1,63.7,101.2z"/>
		<path fill="#78909C" d="M80.9,96l0.1,0c0.3,0,0.4,0.4,0.5,1.2c0,0,0.2,2.5,0.4,7.4c0.1,1,0.3,1.5,0.5,1.5c0,0,0,0,0,0l0.2,0
			c0.2-0.2,0.4-0.8,0.7-1.9c0.7-2.8,1.2-5.2,1.6-7.1c0.3-0.9,0.6-1.3,0.9-1.3l0.1,0c0.3,0,0.5,0.4,0.5,1.3c0,0.2,0.1,1.7,0.3,4.5
			c0,1.1,0.1,2.1,0.3,2.9c0.3,0.9,0.6,1.4,1,1.5l0,0c0.4,0,0.8-0.8,1.1-2.2c0.1-0.7,0.1-1.2,0.1-1.5l0.1,0c0.1,0,0.3,0.3,0.4,1.1
			l0,0.5c0.1,1.6-0.3,2.6-1.1,3.1c-0.2,0.1-0.3,0.1-0.5,0.1l-0.1,0c-1.2,0.1-2.1-1.5-2.6-4.5c-0.1-0.6-0.2-1.2-0.2-1.9l0-1.1l0,0
			c-0.6,3.5-1.1,5.7-1.6,6.8c-0.3,0.6-0.8,0.9-1.3,0.9l-0.1,0c-0.6,0-0.9-0.3-1.2-0.9c-0.4-1-0.6-2.4-0.7-4.2c0,0-0.1-0.6-0.1-1.8
			l0-0.6l0,0c-0.6,3.6-1.2,6-1.7,7.2c-0.3,0.5-0.7,0.7-1.2,0.7l-0.3,0c-1,0-1.6-0.9-1.9-2.8l0-0.9c0-0.5,0.1-0.9,0.3-1.2l0.1,0
			c0,1,0.4,2.1,1.2,3.6c0.2,0.1,0.3,0.2,0.4,0.2l0.1,0c0.2-0.2,0.6-1.3,1-3.3c0.8-3.8,1.6-6.1,2.3-7.2C80.8,96.1,80.8,96.1,80.9,96z
			"/>
		<path fill="#78909C" d="M95.4,101c0,0.4,0,0.7,0,1c0.1,1.5-0.2,2.6-0.6,3.5c-0.5,0.9-1.1,1.3-1.9,1.4c-1,0-1.9-0.4-2.5-1.4
			c-0.6-0.8-0.9-1.8-0.9-3c0-1,0.1-2.1,0.4-3.2c0.4-1.3,1-2.2,1.7-2.6c0.3-0.2,0.7-0.1,1,0.2c0.5-0.1,1,0.1,1.5,0.7
			c0.5,0.6,0.9,1.5,1.2,2.5c0.1-0.1,0.3-0.2,0.5-0.4c0.2-0.2,0.2-0.2,0.3,0C96,100.2,95.8,100.6,95.4,101z M94.2,101.5
			c-0.7,0.1-1.3-0.2-1.8-0.7c-0.5-0.5-0.7-1.1-0.8-1.8c-0.5,1.1-0.7,2.3-0.6,3.7c0,1,0.2,1.8,0.6,2.5c0.3,0.5,0.6,0.8,0.9,0.9
			c0.5,0.1,0.9-0.3,1.3-1.2C94.1,104,94.2,102.9,94.2,101.5z M92.6,97.6c-0.2,0-0.3,0.2-0.3,0.6c0,0.5,0.2,0.9,0.5,1.4
			c0.3,0.5,0.8,0.8,1.3,0.9C93.8,98.6,93.3,97.6,92.6,97.6z"/>
		<path fill="#78909C" d="M100.5,85.2c1.1,0,2,0,2.6,0.1l0,0.1c-0.1,0.3-0.3,0.6-0.5,0.8c-0.2,0.1-0.3,0.1-0.5,0.1
			c-2.7,0.1-4.1,0.3-4.2,0.4c-0.2,0.2-0.2,0.4,0,0.7c0.2,0.3,0.6,1.1,1.3,2.4c1,1.8,1.8,3.7,2.6,5.8c0.3,0.8,0.6,1.8,0.9,3
			c0.2,0.7,0.3,1.2,0.3,1.4l0,0c0.3-0.3,0.5-0.5,0.5-0.5l0.1,0c0,0,0,0,0,0.1c0,0.4-0.2,0.8-0.6,1.3l0,0.9c0.1,2.4-0.4,4-1.6,4.8
			c-0.3,0.2-0.6,0.3-1,0.3l-0.1,0c-1.3,0.1-2.3-0.8-3.1-2.6c-0.2-0.7-0.3-1.3-0.4-1.9c-0.1-1.4,0.2-2.8,0.9-4.3l0.4-0.7
			c0.5-0.6,0.9-0.9,1.2-1c0.3,0,0.5,0.1,0.7,0.4l0,0.1l0,0.1c0,0.2-0.1,0.4-0.2,0.6c0,0.1,0,0.2,0,0.4l0,0c0,0.6,0.4,1.3,1,1.9
			c0.3,0.2,0.6,0.3,0.8,0.3c0-0.4-0.3-1.5-1-3.3c-0.7-2-1.4-3.7-2.2-5.2c-1.3-2.4-2-3.7-2.1-4.2l-0.1-0.5c0-0.5,0.1-0.9,0.5-1.2
			c0.3-0.3,0.9-0.5,1.6-0.6C99,85.3,99.8,85.2,100.5,85.2z M99,99c-0.4,1.1-0.6,2.4-0.6,3.7c0.1,1.5,0.5,2.6,1.3,3.3
			c0.2,0.1,0.3,0.1,0.4,0.1l0.1,0c0.6,0,1.1-0.8,1.4-2.4c0.1-0.6,0.1-1.2,0.1-1.8l0-0.4l-0.2,0c-0.9,0-1.6-0.5-2.2-1.5
			C99.2,99.6,99.1,99.3,99,99L99,99z"/>
		<path fill="#78909C" d="M108.6,101.9c0.1,0.2,0.2,0.5,0.2,0.8c0.1,1.1-0.1,2-0.5,2.8c-0.4,0.7-0.9,1.1-1.6,1.2
			c-0.2,0-0.3,0-0.5-0.1c-1.3-0.4-2-1.8-2.2-4.2c-0.1-1.7,0-3.2,0.4-4.5c0.1-0.5,0.4-0.9,0.9-1c0.1,0,0.2,0,0.3,0.1
			c-0.3,1.5-0.3,3-0.3,4.5c0.1,2.6,0.5,4,1,4.1c0.3,0.1,0.7-0.2,1.2-0.9c0.4-0.7,0.7-1.7,0.9-2.8
			C108.4,101.7,108.5,101.7,108.6,101.9z M104.4,95.5c0.1-0.7,0.4-1.1,0.9-1.2c0.5-0.1,0.7,0.2,0.8,0.7c0.1,0.3,0,0.6-0.2,0.9
			c-0.2,0.2-0.4,0.4-0.7,0.5c-0.3,0.1-0.5,0-0.7-0.1C104.5,96.1,104.4,95.9,104.4,95.5z"/>
		<path fill="#78909C" d="M113.6,94.7L113.6,94.7c0.3,0,0.4,0.2,0.5,0.7c0.1,0,0.2,1.7,0.4,5.2c0.1,1,0.3,1.8,0.6,2.5
			c0.5,1.2,0.9,1.8,1.1,1.8c0.4,0,0.8-0.8,1.1-2.2c0.1-0.6,0.1-1.1,0.1-1.5l0.1,0c0.3,0.3,0.4,0.8,0.4,1.3c0.1,1.9-0.3,3-1.2,3.4
			c-0.2,0-0.4,0.1-0.5,0.1c-1.3,0.1-2.2-1.2-2.8-3.7c-0.2-0.8-0.3-1.6-0.3-2.6l-0.1-1.3l0,0l-0.8,4.4c-0.5,1.8-0.9,2.9-1.2,3.2
			c-0.3,0.2-0.6,0.3-1,0.3l-0.1,0c-0.9,0-1.5-0.7-1.8-2.2c-0.1-0.4-0.1-0.7-0.1-1.1l0-0.1c0-0.6,0.1-1.1,0.3-1.3l0,0
			c0,0,0.1,0,0.1,0l0,0.1c0.1,1,0.4,2.1,1,3.3c0.2,0.2,0.4,0.3,0.5,0.3l0.1,0c0.2-0.2,0.6-1.2,1-3.1c0.8-3.7,1.5-6.2,2.3-7.3
			C113.4,94.8,113.5,94.7,113.6,94.7z"/>
		<path fill="#78909C" d="M118.4,94.6L118.4,94.6c0.1,0,0.1,0.1,0.1,0.1c-0.2,1.9-0.3,3.3-0.2,4.3c0,0.3,0.1,0.5,0.1,0.8
			c0.4-0.4,1-0.6,1.9-0.6l0,0c0.9,0,1.7,0.5,2.3,1.5c0.1,0.1,0.2,0.4,0.4,0.8c0.1,0,0.3-0.3,0.6-0.7l0,0c0.1,0,0.1,0.1,0.2,0.4l0,0
			c0,0.5-0.2,0.9-0.6,1.5l0,0l0,0.1c0.1,1.4-0.6,2.4-1.9,3c-0.4,0.1-0.8,0.2-1.2,0.2c-1.1,0-1.9-0.5-2.6-1.6
			c-0.2-0.6-0.3-1.3-0.4-2.3c0-0.1,0-0.3,0-0.4l0-0.2c-0.2-4.1,0.1-6.3,0.8-6.6C118.1,94.7,118.3,94.6,118.4,94.6z M118.4,102.6
			c0,1.1,0.5,1.9,1.4,2.3c0.1,0,0.3,0.1,0.4,0.1l0.1,0c0.6,0,1.1-0.4,1.3-1.2c0,0,0.1-0.3,0-0.7c-0.4,0-0.9-0.2-1.5-0.7
			c-0.6-0.6-0.8-1.2-0.9-1.7c0,0-0.1-0.1-0.1-0.3c-0.5,0.4-0.7,0.7-0.7,1.1C118.5,101.5,118.4,101.9,118.4,102.6z M120,100.2
			c0,0.3,0.3,0.7,1,1.3c0.2,0.2,0.4,0.3,0.6,0.3l0,0c-0.2-0.7-0.5-1.1-0.8-1.3C120.5,100.3,120.2,100.2,120,100.2L120,100.2z"/>
		<path fill="#78909C" d="M129.5,94L129.5,94c0.1,0,0.1,0,0.1,0.1c-0.2,3.1-0.2,5.6-0.2,7.3c0.1,1.5,0.3,2.5,0.7,3.1
			c0.1,0.1,0.3,0.2,0.4,0.2l0.1,0c0.4,0,0.9-0.8,1.3-2.4c0.1-0.2,0.1-0.7,0.2-1.4l0.1,0c0.3,0.3,0.4,0.6,0.4,0.9l0,0.5
			c0.1,1.7-0.3,2.7-1.2,3.1c-0.1,0.1-0.3,0.1-0.5,0.1c-1.2,0-2-0.6-2.6-2c-0.1-0.3-0.2-1-0.4-2c0-0.3,0-0.6,0-1l0,0
			c-1.6,0.2-2.4,0.3-2.4,0.4c0.2,2.8,0.4,4.5,0.4,4.8c0,0.1,0,0.1-0.1,0.2l-0.1,0c-0.9-0.1-1.3-0.5-1.3-1.2
			c-0.1-0.5-0.2-1.2-0.2-1.9l0-1.2c-0.1-2.7,0-4.9,0.5-6.6c0.3-0.5,0.6-0.7,0.9-0.8l0.1,0c0,0,0.1,0,0.1,0.1
			c-0.2,1.9-0.3,3.6-0.2,4.9l0,0.3c0,0,0.1,0,0.1,0c1.5-0.2,2.4-0.3,2.5-0.3c0.2-3.1,0.4-4.7,0.6-4.7
			C129.1,94.2,129.4,94.1,129.5,94z"/>
		<path fill="#78909C" d="M138.1,99.3c0,0.4,0,0.7,0,1c0.1,1.5-0.2,2.6-0.6,3.5c-0.5,0.9-1.1,1.3-1.9,1.4c-1,0-1.9-0.4-2.5-1.4
			c-0.6-0.8-0.9-1.8-0.9-3c0-1,0.1-2.1,0.4-3.2c0.4-1.3,1-2.2,1.7-2.6c0.3-0.2,0.7-0.1,1,0.2c0.5-0.1,1,0.1,1.5,0.7
			c0.5,0.6,0.9,1.5,1.2,2.5c0.1-0.1,0.3-0.2,0.5-0.4c0.2-0.2,0.2-0.2,0.3,0C138.7,98.4,138.5,98.9,138.1,99.3z M136.9,99.8
			c-0.7,0.1-1.3-0.2-1.8-0.7c-0.5-0.5-0.7-1.1-0.8-1.8c-0.5,1.1-0.7,2.3-0.6,3.7c0,1,0.2,1.8,0.6,2.5c0.3,0.5,0.6,0.8,0.9,0.9
			c0.5,0.1,0.9-0.3,1.3-1.2C136.8,102.3,137,101.1,136.9,99.8z M135.4,95.9c-0.2,0-0.3,0.2-0.3,0.6c0,0.5,0.2,0.9,0.5,1.4
			c0.3,0.5,0.8,0.8,1.3,0.9C136.5,96.8,136,95.9,135.4,95.9z"/>
		<path fill="#78909C" d="M145,93.4l0.1,0c0.3,0,0.4,0.4,0.5,1.2c0,0,0.2,2.5,0.4,7.4c0.1,1,0.3,1.5,0.5,1.5c0,0,0,0,0,0l0.2,0
			c0.2-0.2,0.4-0.8,0.7-1.9c0.7-2.8,1.2-5.2,1.6-7.1c0.3-0.9,0.6-1.3,0.9-1.3l0.1,0c0.3,0,0.5,0.4,0.5,1.3c0,0.2,0.1,1.7,0.3,4.5
			c0,1.1,0.1,2.1,0.3,2.9c0.3,0.9,0.6,1.4,1,1.5l0,0c0.4,0,0.8-0.8,1.1-2.2c0.1-0.7,0.1-1.2,0.1-1.5l0.1,0c0.1,0,0.3,0.3,0.4,1.1
			l0,0.5c0.1,1.6-0.3,2.6-1.1,3.1c-0.2,0.1-0.3,0.1-0.5,0.1l-0.1,0c-1.2,0.1-2.1-1.5-2.6-4.5c-0.1-0.6-0.2-1.2-0.2-1.9l0-1.1l0,0
			c-0.6,3.5-1.1,5.7-1.6,6.8c-0.3,0.6-0.8,0.9-1.3,0.9l-0.1,0c-0.6,0-0.9-0.3-1.2-0.9c-0.4-1-0.6-2.4-0.7-4.2c0,0-0.1-0.6-0.1-1.8
			l0-0.6l0,0c-0.6,3.6-1.2,6-1.7,7.2c-0.3,0.5-0.7,0.7-1.2,0.7l-0.3,0c-1,0-1.6-0.9-1.9-2.8l0-0.9c0-0.5,0.1-0.9,0.3-1.2l0.1,0
			c0,1,0.4,2.1,1.2,3.6c0.2,0.1,0.3,0.2,0.4,0.2l0.1,0c0.2-0.2,0.6-1.3,1-3.3c0.8-3.8,1.6-6.1,2.3-7.2
			C144.9,93.5,144.9,93.5,145,93.4z"/>
		<path fill="#78909C" d="M157.9,102.6c-0.5,1.4-1.2,2.1-2.1,2.1c-0.5,0-0.9-0.2-1.2-0.6c-0.7-0.8-1-2.2-1.1-4.2
			c-0.1-1.6,0.1-3.3,0.4-5c0.1-0.7,0.4-1.1,0.9-1.2c0.1,0,0.2,0,0.3,0c0,0,0,0.1,0,0.2c-0.2,1.7-0.3,3.4-0.3,5.3
			c0.1,1.6,0.3,2.7,0.6,3.4c0.3,0.7,0.7,1.1,1,1c0.7-0.1,1.1-1.4,1.2-3.8c0-1.2,0.2-2.7,0.3-4.5c0.2-0.8,0.5-1.2,1-1.3
			c0.2-0.1,0.3,0,0.3,0.2c-0.2,1.9-0.2,4-0.1,6.2c0,0.9,0.2,2.2,0.4,4c0.2,1.8,0.3,3.1,0.4,4c0.1,1.9-0.5,3.4-1.7,4.4
			c-0.5,0.5-1.1,0.7-1.6,0.7c-0.6,0-1.2-0.2-1.7-0.8c-0.5-0.5-0.9-1.2-1.1-2.1c-0.1-0.5-0.2-0.9-0.2-1.2c0-0.4,0-0.7,0.2-1
			c0-0.1,0.1-0.2,0.2-0.2c0.1,0,0.1,0.1,0.2,0.2c0.4,1.3,0.8,2.2,1.4,2.9c0.6,0.6,1.1,1,1.7,0.9c1,0,1.4-1.1,1.4-3
			c0-0.5-0.1-1.1-0.2-1.8C158.2,105.8,158,104.3,157.9,102.6z"/>
	</g>
</g>
<g>
	<g>
		<g>
			<path fill="#90A4AE" d="M59.7,47.9c0,0-0.3-1.1-1-2.9c-0.7-1.8-1.7-4.4-3.3-7.4c-0.8-1.5-1.7-3.1-2.6-4.7c-1-1.6-2.1-3.3-3.4-5
				c-1.2-1.7-2.6-3.3-4.1-4.9c-0.8-0.8-1.5-1.6-2.4-2.3c-0.4-0.4-0.8-0.8-1.2-1.1l-1.3-1.1c-0.8-0.7-1.8-1.3-2.6-2
				c-0.9-0.6-1.8-1.2-2.8-1.7c-1.9-1.1-3.8-2-5.7-2.8c-1-0.4-1.9-0.8-2.8-1c-0.9-0.3-1.8-0.7-2.8-0.9c-0.9-0.2-1.8-0.5-2.7-0.7
				c-0.9-0.2-1.7-0.3-2.5-0.5c-0.8-0.1-1.6-0.2-2.3-0.3c-0.7-0.1-1.5-0.2-2.1-0.2c-1.3-0.1-2.5-0.3-3.5-0.2c-1.9,0-3.1-0.1-3.1-0.1
				l0-0.9c0,0,1.1-0.1,3.1-0.3c1-0.1,2.2-0.1,3.6-0.1c0.7,0,1.4,0,2.2,0.1C17.2,7,18,7.1,18.8,7.2s1.7,0.3,2.6,0.4s1.8,0.4,2.8,0.6
				c1.9,0.5,3.9,1.1,5.9,2c2,0.8,3.9,1.9,5.8,3.1c0.9,0.6,1.9,1.3,2.8,1.9c0.9,0.7,1.8,1.4,2.7,2.1l1.3,1.1c0.4,0.4,0.8,0.8,1.2,1.2
				c0.8,0.8,1.6,1.6,2.3,2.4c1.5,1.7,2.9,3.4,4.1,5.1c1.2,1.7,2.3,3.5,3.3,5.2c0.9,1.7,1.8,3.3,2.5,4.9c2.8,6.2,3.8,10.6,3.8,10.6
				L59.7,47.9z"/>
		</g>
		<g>
			<g>
				<polygon fill="#90A4AE" points="16.7,2.5 17.4,3.9 7.7,7.9 17.7,11.1 17.2,12.6 3,8.2 				"/>
			</g>
		</g>
	</g>
</g>
</svg>
