<?xml version="1.0" encoding="utf-8"?>
<!-- Generator: Adobe Illustrator 18.0.0, SVG Export Plug-In . SVG Version: 6.00 Build 0)  -->
<!DOCTYPE svg PUBLIC "-//W3C//DTD SVG 1.1//EN" "http://www.w3.org/Graphics/SVG/1.1/DTD/svg11.dtd">
<svg version="1.1" id="Layer_1" xmlns="http://www.w3.org/2000/svg" xmlns:xlink="http://www.w3.org/1999/xlink" x="0px" y="0px"
	 width="182px" height="62px" viewBox="0 0 182 62" enable-background="new 0 0 182 62" xml:space="preserve">
<g>
	<g>
		<path fill="#78909C" d="M78.2,0.1c4.9-0.4,8.6,0.9,11.3,4c0.9,1.2,1.4,2.6,1.6,4c0.3,3.5-1.6,6.2-5.7,8.1
			c-1.7,0.7-3.5,1.2-5.4,1.3h-0.3h-0.2c-0.2,0-0.5,0-0.8-0.1v0.1c0.3,3.1,0.8,6.3,1.6,9.7l-0.1,0.1l0,0c-0.8,0.1-1.4-0.3-1.8-1.2
			c-0.5-1.8-0.8-4.1-1.1-6.9v-0.4c0-0.3-0.1-0.5-0.1-0.6c0-0.2,0-0.4,0-0.6L77,16.9c-0.5-5.4-0.5-9.6-0.1-12.8
			C77,3.6,77.3,3.2,77.6,3c0.1-0.1,0.1-0.1,0.2-0.1h0.1c0,0,0,0,0,0.1c-0.2,3,0,7.2,0.5,12.5c0.1,0.4,0.1,0.7,0.1,0.9H79
			c5-0.5,8.4-2,10.3-4.8c0.6-1,0.8-2,0.7-3.1c-0.2-2.7-2.1-4.7-5.5-6c-1.8-0.7-3.9-0.9-6.2-0.7C75.4,2,73,3,71.3,4.7
			c-0.9,0.9-1.3,2-1.2,3c0.1,1.5,1.2,2.6,3.2,3.4c0.5,0.2,1.2,0.3,2.2,0.5l0.1,0.1c-0.3,0.4-0.7,0.6-1.4,0.6c-1,0.1-2-0.1-3-0.6
			C69.9,11,69.1,9.8,69,8.3s0.3-3,1.4-4.5C72.2,1.6,74.8,0.4,78.2,0.1z"/>
		<path fill="#78909C" d="M95.3,20.5c0.3,1.3,0.7,2.1,1.3,2.3c0.2,0.1,0.4,0.1,0.6,0.1c0.7-0.1,1.4-0.4,2-1.1s1.1-1.6,1.3-2.7
			c0-0.1,0.1-0.2,0.1-0.2s0.1,0,0.1,0.1c0.1,0.3,0.1,0.7,0.1,1c-0.1,1-0.4,1.9-1,2.6s-1.3,1-2.2,1.1c-0.4,0-0.9,0-1.3-0.1
			c-0.6-0.2-1.2-0.6-1.7-1.3c-0.6-0.8-1-1.8-1.1-2.9c0-0.5,0-0.9,0-1.4c0.1-1.5,0.5-2.7,1-3.6c0.5-0.8,1.1-1.3,1.8-1.3
			c0.3,0,0.6,0,0.9,0.2c0.9,0.5,1.3,1.3,1.4,2.4c0,0.4,0,0.8,0,1.2c-0.1,1-0.6,1.9-1.2,2.5C96.9,19.9,96.2,20.3,95.3,20.5z
			 M95.3,19.8c0.8-0.3,1.5-0.9,1.9-2c0.4-0.9,0.5-1.8,0.4-2.7c-0.1-0.7-0.2-1.1-0.5-1.2c-0.4-0.1-0.8,0.4-1.2,1.3
			c-0.4,1-0.7,2.1-0.7,3.4C95.2,19.2,95.2,19.6,95.3,19.8z"/>
		<path fill="#78909C" d="M107.8,18.3C107.8,18.2,107.7,18.2,107.8,18.3c-0.1-0.1-0.2,0-0.2,0.1c-0.2,1.1-0.7,2-1.3,2.7
			c-0.6,0.7-1.3,1-2,1.1c-0.2,0-0.4,0-0.6-0.1c-0.6-0.2-1-1-1.3-2.3c0.9-0.1,1.6-0.5,2.1-1.1c0.3-0.3,0.6-0.7,0.8-1.1
			c0-0.1,0-0.2,0-0.2c-0.3-0.2-0.7-0.1-1.1,0.1c0,0-0.1,0.1-0.1,0.1c-0.4,0.9-1,1.4-1.7,1.6c-0.1-0.3-0.1-0.7-0.1-1.2
			c0-1.3,0.3-2.4,0.7-3.4c0.3-0.7,0.6-1.1,0.9-1.2c0.1-0.1,0.1-0.1,0.2-0.1c0.1-0.1,0.2-0.2,0.2-0.3c0,0,0,0,0,0c0,0,0,0,0,0
			c0-0.1,0-0.2,0-0.3c0,0,0,0,0,0c0,0,0,0,0,0c-0.3-0.2-0.6-0.2-0.9-0.2c-0.7,0-1.3,0.5-1.8,1.3c-0.5,0.9-0.9,2.1-1,3.6v1.4
			c0.1,1.1,0.5,2.1,1.1,2.9c0.5,0.7,1.1,1.1,1.7,1.3c0.4,0.1,0.9,0.1,1.3,0.1c0.9-0.1,1.6-0.4,2.2-1.1c0.6-0.7,0.9-1.6,1-2.6
			C107.9,19,107.9,18.6,107.8,18.3z"/>
		<path fill="#78909C" d="M115.1,17.6c0.1,0.2,0.1,0.7,0.1,1.3c-0.1,1-0.4,1.8-1,2.5s-1.3,1.1-2.1,1.2c-1.2,0.1-2.2-0.3-3-1.3
			c-0.6-0.8-1-1.9-1.1-3.2c0-0.3-0.1-0.7-0.1-1c0-1.7,0.3-3,0.8-4.1c0.5-1,1.1-1.5,1.8-1.5c0.3,0,0.6,0,0.8,0.2
			c1,0.5,1.6,1.3,1.7,2.3c0.1,0.6,0,1.1-0.3,1.6c-0.2,0.4-0.5,0.7-0.9,0.7c-0.1,0-0.1,0-0.2-0.1c0.2-0.7,0.2-1.4,0.2-2.1
			c-0.1-1.1-0.4-1.6-0.8-1.6s-0.8,0.5-1.2,1.6c-0.4,1.2-0.6,2.5-0.5,3.8c0.1,2.2,0.6,3.5,1.5,3.8c0.2,0.1,0.5,0.1,0.7,0.1
			c0.7-0.1,1.3-0.5,2-1.4c0.6-0.8,1-1.7,1.2-2.6C114.9,17.4,115,17.4,115.1,17.6z"/>
		<path fill="#78909C" d="M128.3,17.2c0.2,2.4-0.3,3.6-1.6,3.6c-0.8,0-1.5-0.3-2.1-1s-1-2-1.2-3.8c0-0.5-0.1-1.2-0.1-2
			c0-0.9-0.1-1.5-0.1-1.8c0-0.2-0.1-0.4-0.1-0.3c-0.1,0-0.1,0.1-0.2,0.3c-0.8,2.6-1.1,5.4-0.9,8.5c0,0.2-0.1,0.3-0.3,0.3
			c-0.8,0-1.3-0.5-1.5-1.3c-0.2-1.6-0.5-3.7-0.9-6.3c0-0.3-0.1-0.4-0.2-0.4s-0.2,0.1-0.3,0.3c-1,2.6-1.4,5.4-1.3,8.4
			c0,0.2-0.1,0.3-0.3,0.3c-0.7-0.1-1.1-0.4-1.2-0.9c-0.2-0.7-0.3-1.7-0.4-2.8c-0.3-3.4-0.3-5.7-0.1-7c0.1-0.5,0.4-0.9,0.8-1.1
			c0.1-0.1,0.2-0.1,0.2-0.1s0.1,0.1,0.1,0.2c-0.1,1.8,0,4.3,0.3,7.7c0.3-2.5,0.8-4.6,1.7-6.2c0.2-0.4,0.5-0.7,0.7-0.7
			s0.4,0.1,0.6,0.2c0.4,0.3,0.7,1,1,2.1c0.1,0.6,0.3,1.6,0.4,3c0.2-2.2,0.6-4.1,1.3-5.8c0.2-0.5,0.5-0.7,0.7-0.8
			c0.2,0,0.4,0.1,0.6,0.3c0.5,0.5,0.9,1.3,0.9,2.5c0.1,2.2,0.2,3.4,0.2,3.8c0.2,2.2,0.6,3.3,1.2,3.5c0.4,0.1,0.7-0.2,1-1
			s0.5-1.6,0.5-2.6c0-0.3,0.1-0.3,0.2-0.1C128.1,16.4,128.2,16.7,128.3,17.2z"/>
		<path fill="#78909C" d="M129.8,19.7c0.4,4.3,0.8,7.7,1.4,10.3c0,0.1,0,0.2,0,0.2c0,0.1-0.1,0.1-0.3,0c-0.8-0.2-1.3-0.7-1.5-1.7
			c-0.3-1.6-0.5-3.5-0.7-5.7c-0.5-5.1-0.6-9.3-0.3-12.5c0.1-0.7,0.3-1.2,0.8-1.5c0.1-0.1,0.2-0.1,0.2-0.1v0.2
			c-0.1,1.2-0.1,2.7,0,4.6c0.4-2.4,1.3-3.7,2.6-3.9c0.4,0,0.8,0,1.2,0.3c1.1,0.5,1.8,1.7,1.9,3.7c0.1,0.7,0,1.5-0.1,2.4
			c-0.2,1.3-0.6,2.4-1.2,3.2c-0.6,0.8-1.3,1.2-2.1,1.3C131.1,20.7,130.4,20.4,129.8,19.7z M129.9,16.8c0.1,1.9,0.6,2.8,1.5,2.7
			c0.5,0,1-0.4,1.4-1.1c0.5-0.8,0.9-1.9,1-3.2c0-0.6,0-1.1,0-1.7c-0.1-0.8-0.2-1.4-0.5-2c-0.2-0.5-0.5-0.8-0.7-0.8
			c-0.6-0.1-1.2,0.5-1.8,1.6C130.1,13.6,129.8,15.1,129.9,16.8z"/>
		<path fill="#78909C" d="M142.3,10.4c0.1-0.4,0.4-0.6,0.8-0.8c0.1,0,0.2,0,0.2,0s0.1,0.1,0,0.2c-0.2,1.6-0.3,3.2-0.1,4.9
			c0.2,2.2,0.6,3.4,1.1,3.5c0.3,0,0.6-0.3,0.9-1c0.3-0.7,0.5-1.5,0.6-2.5c0-0.1,0-0.2,0.2-0.1c0.2,0.2,0.3,0.5,0.4,1.1
			c0.1,1,0,1.8-0.3,2.4s-0.7,1-1.3,1c-0.3,0-0.6,0-1-0.2c-0.7-0.3-1.2-1-1.5-2c-0.2,1.8-0.9,2.8-2,2.9c-0.9,0.1-1.7-0.3-2.3-1
			c-0.5-0.7-0.8-1.5-0.9-2.5c-0.1-0.7,0-1.5,0.1-2.3c0.2-1.5,0.6-2.7,1.3-3.6c0.6-0.8,1.2-1.3,1.9-1.3C141.1,9,141.7,9.5,142.3,10.4
			z M141.8,12.6c-0.1-1.7-0.5-2.5-1.1-2.6c-0.4-0.1-0.8,0.4-1.3,1.4s-0.8,2.2-0.9,3.4c0,0.6,0,1.2,0,1.7c0.1,1.6,0.6,2.4,1.3,2.5
			c0.5,0,1-0.5,1.4-1.7C141.7,16.1,141.9,14.5,141.8,12.6z"/>
		<path fill="#78909C" d="M147.3,8.2C147.3,8.3,147.3,8.3,147.3,8.2c-0.1,1.4-0.1,2.8,0,4.2l0.2,2c0.2,1.9,0.6,3,1.3,3.4
			c0.1,0,0.2,0.1,0.3,0h0.1c0.8-0.1,1.1-1.9,1-5.6c0-1.7,0.1-2.7,0.1-3.1c0.1-0.3,0.4-0.6,0.7-0.8c0.2-0.1,0.3-0.1,0.4-0.1
			c0.1,0,0.2,0,0.2,0.1c-0.1,1.6-0.1,2.6,0,3.2c0,0-0.1,0-0.1,0.1c0.1,0.9,0.1,1.5,0.1,1.9c0,0.1,0,0.1,0,0.2c0,0.1,0.1,0.2,0.1,0.4
			l0.1,0.6c0.2,1.4,0.4,2.1,0.6,2.3c0.1,0.3,0.3,0.4,0.6,0.3l0,0c0.5,0,0.9-1.1,1.2-3.2v-0.3c0,0,0-0.1,0.1-0.2h0.2
			c0.2,0,0.4,0.2,0.4,0.7v0.3c0.1,1,0,1.8-0.3,2.6v0.3c0.1,1.3,0.4,2.3,0.9,3c0.1,0.1,0.1,0.2,0.1,0.2c0,0.1-0.1,0.2-0.2,0.2h-0.2
			c-0.2,0-0.5-0.1-0.9-0.2c-0.4-0.2-0.9-0.1-1.5,0.3s-1.2,0.2-1.8-0.8c0.1-0.2,0.3-0.2,0.6-0.1c0.4,0.1,0.8,0,1.2-0.3s1-0.4,1.6-0.1
			l0,0c-0.5-0.7-0.8-1.3-0.8-1.6c-0.2,0.1-0.4,0.2-0.6,0.2h-0.3c-0.5,0-1.1-0.3-1.6-1.2c-0.1-0.2-0.2-0.4-0.3-0.7l0,0
			c0,0.5-0.3,1.1-0.7,1.7c-0.4,0.5-0.9,0.8-1.4,0.8c-0.8,0.1-1.5-0.5-2-1.6c-0.3-0.8-0.6-1.8-0.7-3.2v-0.5c-0.1-1.5,0-3.2,0.3-4.9
			C146.5,8.6,146.8,8.3,147.3,8.2z"/>
		<path fill="#78909C" d="M159.7,13.5c0.1,0.2,0.2,0.5,0.3,0.8c0.1,1.1,0,2-0.4,2.8c-0.4,0.8-0.9,1.2-1.5,1.2c-0.2,0-0.3,0-0.5-0.1
			c-1.3-0.3-2.1-1.7-2.4-4.1c-0.2-1.7-0.1-3.2,0.2-4.5c0.1-0.5,0.4-0.9,0.8-1c0.1,0,0.2,0,0.3,0.1c-0.2,1.5-0.2,3-0.1,4.5
			c0.2,2.6,0.7,3.9,1.2,4.1c0.3,0.1,0.7-0.2,1.1-1c0.4-0.8,0.6-1.7,0.7-2.8C159.5,13.3,159.6,13.3,159.7,13.5z M155.2,7.4
			c0-0.7,0.3-1.1,0.8-1.3c0.4-0.1,0.7,0.1,0.9,0.7c0.1,0.3,0,0.6-0.1,0.9c-0.2,0.3-0.4,0.4-0.6,0.5c-0.3,0.1-0.5,0-0.7-0.1
			C155.3,7.9,155.2,7.7,155.2,7.4z"/>
		<path fill="#78909C" d="M163,6.5h0.3c0.4,0,0.8,0.2,1.2,0.7l0,0c0-0.2,0.1-0.4,0.2-0.5c0.2-0.2,0.3-0.2,0.4-0.3l0,0
			c0.1,0,0.1,0.1,0.2,0.2c0,1.3,0,2.7,0.1,4.3c0.1,1.2,0.1,2,0.2,2.4c0.1,0.9,0.3,1.7,0.6,2.3c0.3,0.4,0.6,0.6,0.7,0.6
			c0.6-0.1,1-0.5,1.1-1.4c0.1-0.7,0.1-1.3,0.1-1.8v-0.1c0,0,0-0.1,0.1-0.2c0.5,0.1,0.7,0.5,0.8,1V14c0.1,0.8,0,1.6-0.3,2.2
			c-0.1,0.2-0.2,0.4-0.3,0.5c-0.5,0.4-1,0.6-1.3,0.7h-0.3c-0.7,0.1-1.3-0.5-1.8-1.8l0,0c-0.4,1.3-1,2-1.9,2.1h-0.3
			c-0.6,0.1-1.3-0.3-2.1-1.1c-0.5-0.6-0.7-1-0.7-1.4c0-0.7,0.1-1.1,0.3-1.1h0.1c0.1,0,0.3,0.3,0.6,1c0.1,0.3,0.5,0.6,0.9,1.1
			c0.5,0.3,0.8,0.5,1,0.4c0.9-0.1,1.4-1.2,1.5-3.5l0,0l0,0c-0.2,0.5-0.5,0.9-0.8,1c-0.1,0.1-0.3,0.1-0.5,0.1
			c-0.7,0.1-1.3-0.2-1.7-0.9c-0.3-0.5-0.5-0.9-0.5-1.2c-0.1-0.2-0.1-0.6-0.2-1c-0.1-1.4,0.2-2.7,0.9-3.8
			C161.9,6.8,162.4,6.5,163,6.5z M161.7,11.4c0.1,1,0.4,1.6,1,1.9h0.1c0.5,0,0.9-0.8,1.3-2.3c0.2-1.3,0.3-2.2,0.3-2.6
			c-0.1-0.6-0.3-0.9-0.8-1.1c-0.1,0-0.1,0-0.2,0c-0.3,0-0.7,0.2-1,0.6c-0.4,0.5-0.6,1.1-0.7,1.6C161.7,10.3,161.7,10.9,161.7,11.4z"
			/>
		<path fill="#78909C" d="M85.3,48.1c-0.4,1.4-1.1,2.1-2,2.2c-0.5,0-0.9-0.1-1.3-0.5c-0.7-0.8-1.1-2.2-1.3-4.1
			c-0.1-1.6-0.1-3.3,0.2-5c0.1-0.7,0.4-1.1,0.8-1.2c0.1,0,0.2,0,0.3,0c0,0,0,0.1,0,0.2c-0.2,1.7-0.2,3.4,0,5.3
			c0.1,1.6,0.4,2.7,0.7,3.4c0.4,0.7,0.7,1,1.1,0.9c0.7-0.2,1-1.5,1-3.9c0-1.2,0-2.7,0.1-4.5c0.1-0.8,0.4-1.2,1-1.4
			c0.2-0.1,0.3,0,0.3,0.2c-0.1,1.9,0,4,0.2,6.2c0.1,0.9,0.3,2.2,0.6,3.9c0.3,1.7,0.5,3.1,0.6,3.9c0.2,1.9-0.3,3.4-1.4,4.5
			c-0.5,0.5-1,0.7-1.6,0.8s-1.2-0.2-1.7-0.7s-0.9-1.2-1.2-2c-0.1-0.4-0.2-0.8-0.3-1.2c0-0.4,0-0.7,0.1-1c0-0.1,0.1-0.2,0.2-0.2
			s0.1,0.1,0.2,0.2c0.4,1.2,0.9,2.2,1.5,2.8s1.2,0.9,1.7,0.9c1-0.1,1.4-1.1,1.2-3.1c0-0.5-0.1-1.1-0.3-1.8
			C85.8,51.4,85.5,49.8,85.3,48.1z"/>
		<path fill="#78909C" d="M99.1,45.2c0.3-2.7,0.8-4.8,1.5-6.4c0.2-0.5,0.4-0.7,0.7-0.7c0.4,0,0.8,0.2,1.1,0.6
			c0.2,0.3,0.4,0.9,0.5,1.6c0.3,4.2,0.9,6.4,1.6,6.5c0.3,0.1,0.7-0.2,0.9-0.9c0.3-0.7,0.4-1.5,0.3-2.3c0-0.2,0-0.3,0.2-0.1
			s0.3,0.5,0.4,0.8c0.1,1.1,0.1,1.9-0.2,2.5c-0.3,0.6-0.7,0.9-1.2,1c-1.4,0.1-2.3-0.7-2.8-2.6c-0.2-1-0.5-2.7-0.7-5.2
			c-0.1-0.3-0.2-0.4-0.3-0.1c-1,2.7-1.4,5.6-1.4,8.7c0,0.3-0.1,0.4-0.3,0.4c-0.8-0.1-1.2-0.4-1.3-1c-0.2-1.2-0.4-2.7-0.5-4.6
			c-0.1-2-0.1-3.6,0-4.7c0.1-0.6,0.3-1,0.8-1.2c0.1,0,0.2,0,0.3,0c0,0,0.1,0.1,0.1,0.2C98.6,39.8,98.8,42.4,99.1,45.2z"/>
		<path fill="#78909C" d="M111.5,38.3c0.1-0.4,0.4-0.6,0.8-0.8c0.1,0,0.2,0,0.2,0s0.1,0.1,0,0.2c-0.2,1.6-0.3,3.2-0.1,4.9
			c0.2,2.2,0.6,3.4,1.1,3.5c0.3,0,0.6-0.3,0.9-1s0.5-1.5,0.6-2.5c0-0.1,0-0.2,0.2-0.1c0.2,0.2,0.3,0.5,0.4,1.1c0.1,1,0,1.8-0.3,2.4
			s-0.7,1-1.3,1c-0.3,0-0.6,0-1-0.2c-0.7-0.3-1.2-1-1.5-2c-0.2,1.8-0.9,2.8-2,2.9c-0.9,0.1-1.7-0.3-2.3-1c-0.5-0.7-0.8-1.5-0.9-2.5
			c-0.1-0.7,0-1.5,0.1-2.3c0.2-1.5,0.6-2.7,1.3-3.6c0.6-0.8,1.2-1.3,1.9-1.3C110.3,37,111,37.4,111.5,38.3z M111,40.5
			c-0.1-1.7-0.4-2.5-1.1-2.6c-0.4-0.1-0.8,0.4-1.3,1.4s-0.8,2.2-0.9,3.4c0,0.6,0,1.2,0,1.7c0.1,1.6,0.6,2.4,1.3,2.5
			c0.5,0,1-0.5,1.4-1.7C110.9,44,111.1,42.4,111,40.5z"/>
		<path fill="#78909C" d="M117.1,46c0.4,4.3,0.9,7.7,1.4,10.3c0,0.1,0,0.2,0,0.2c0,0.1-0.1,0.1-0.3,0c-0.8-0.2-1.3-0.7-1.5-1.7
			c-0.3-1.6-0.5-3.5-0.7-5.7c-0.5-5.1-0.6-9.3-0.3-12.5c0.1-0.7,0.3-1.2,0.8-1.5c0.1-0.1,0.2-0.1,0.2-0.1v0.2
			c-0.1,1.2-0.1,2.7,0,4.6c0.4-2.4,1.3-3.7,2.6-3.9c0.4,0,0.8,0,1.2,0.3c1.1,0.5,1.8,1.7,1.9,3.7c0.1,0.7,0,1.5-0.1,2.4
			c-0.2,1.3-0.6,2.4-1.2,3.2s-1.3,1.2-2.1,1.3C118.3,46.9,117.6,46.6,117.1,46z M117.1,43.1c0.1,1.9,0.6,2.8,1.5,2.7
			c0.5,0,1-0.4,1.4-1.1c0.5-0.8,0.9-1.9,1-3.2c0-0.6,0-1.1,0-1.7c-0.1-0.8-0.2-1.4-0.5-2c-0.2-0.5-0.5-0.8-0.7-0.8
			c-0.6-0.1-1.2,0.5-1.8,1.6C117.4,39.9,117,41.4,117.1,43.1z"/>
		<path fill="#78909C" d="M128.9,44.2c-0.4,1.4-1.1,2.1-2,2.2c-0.5,0-0.9-0.1-1.3-0.5c-0.7-0.8-1.1-2.2-1.3-4.1
			c-0.1-1.6-0.1-3.3,0.2-5c0.1-0.7,0.4-1.1,0.8-1.2c0.1,0,0.2,0,0.3,0c0,0,0,0.1,0,0.2c-0.2,1.7-0.2,3.4,0,5.3
			c0.1,1.6,0.4,2.7,0.7,3.4s0.7,1,1.1,0.9c0.7-0.2,1-1.5,1-3.9c0-1.2,0-2.7,0.1-4.5c0.1-0.8,0.4-1.2,1-1.4c0.2-0.1,0.3,0,0.3,0.2
			c-0.1,1.9,0,4,0.2,6.2c0.1,0.9,0.3,2.2,0.6,3.9s0.5,3.1,0.6,3.9c0.2,1.9-0.3,3.4-1.4,4.5c-0.5,0.5-1,0.7-1.6,0.8
			c-0.6,0.1-1.2-0.2-1.7-0.7s-0.9-1.2-1.2-2c-0.1-0.4-0.2-0.8-0.3-1.2c0-0.4,0-0.7,0.1-1c0-0.1,0.1-0.2,0.2-0.2s0.1,0.1,0.2,0.2
			c0.4,1.2,0.9,2.2,1.5,2.8s1.2,0.9,1.7,0.9c1-0.1,1.4-1.1,1.2-3.1c0-0.5-0.1-1.1-0.3-1.8C129.3,47.4,129.1,45.8,128.9,44.2z"/>
		<path fill="#78909C" d="M141.8,33.2l0.2,0.1c0,2.1,0,3.5,0.1,4.3c0.1,1.2,0.2,1.9,0.2,2.1v0.1c1-0.6,1.7-2.1,2.1-4.2
			c0.2-1.2,0.2-2,0.2-2.6h0.1l0,0c0.4,0,0.6,0.3,0.7,0.9c0.1,1-0.1,2.4-0.6,4.1c-0.3,0.8-0.8,1.6-1.4,2.5c0,0.5,0.3,1.2,0.8,2.2
			c0.4,0.6,1,0.9,1.8,0.7s1.4-1.1,1.9-2.9l0.3-1.2l0,0c0.2,0.1,0.4,0.4,0.4,0.8c0.2,1.8-0.3,3.2-1.5,4c-0.4,0.2-0.8,0.3-1.1,0.4
			c-1.2,0.1-2.2-0.5-3-1.7c-0.2-0.4-0.4-0.7-0.4-0.9l0,0V42c0,0.4,0.3,1.3,0.7,2.9c0,0.1-0.1,0.2-0.2,0.2c-0.4-0.1-0.8-0.3-1.2-0.8
			c-0.3-0.6-0.6-1.6-0.7-3l-0.2-2c-0.2-1.7-0.2-3.4-0.1-5c0.2-0.4,0.4-0.8,0.6-0.9C141.6,33.3,141.7,33.2,141.8,33.2z"/>
		<path fill="#78909C" d="M153.9,32.1L153.9,32.1c0.3,0,0.5,0.2,0.5,0.7c0.1,0,0.3,1.7,0.7,5.1c0.2,1,0.4,1.8,0.7,2.5
			c0.5,1.2,0.9,1.7,1.2,1.7c0.4,0,0.7-0.8,1-2.3c0.1-0.6,0.1-1.1,0-1.5h0.1c0.3,0.3,0.5,0.7,0.5,1.3c0.2,1.9-0.2,3-1,3.5
			c-0.2,0-0.4,0.1-0.5,0.1c-1.3,0.1-2.3-1.1-3-3.6c-0.2-0.8-0.4-1.6-0.5-2.6l-0.1-1.3l0,0l-0.6,4.5c-0.4,1.8-0.7,2.9-1,3.3
			c-0.2,0.2-0.6,0.3-1,0.4h-0.1c-0.9,0.1-1.6-0.6-1.9-2.1c-0.1-0.4-0.1-0.7-0.2-1.1v-0.1c-0.1-0.6,0-1.1,0.3-1.4l0,0h0.1v0.1
			c0.1,1,0.5,2,1.2,3.3c0.2,0.2,0.4,0.3,0.5,0.2h0.1c0.2-0.2,0.5-1.2,0.8-3.1c0.6-3.8,1.2-6.2,1.9-7.4
			C153.8,32.2,153.9,32.1,153.9,32.1z"/>
		<path fill="#78909C" d="M163.2,38.3c0.1,0.2,0.2,0.5,0.3,0.8c0.1,1.1,0,2-0.4,2.8s-0.9,1.2-1.5,1.2c-0.2,0-0.4,0-0.5-0.1
			c-1.3-0.3-2.1-1.7-2.4-4.1c-0.2-1.7-0.1-3.2,0.2-4.5c0.1-0.5,0.4-0.9,0.8-1c0.1,0,0.2,0,0.3,0.1c-0.2,1.5-0.2,3-0.1,4.5
			c0.2,2.6,0.7,3.9,1.2,4.1c0.3,0.1,0.7-0.2,1.1-1c0.4-0.8,0.6-1.7,0.7-2.8C163.1,38.1,163.1,38.1,163.2,38.3z M158.8,32.2
			c0-0.7,0.3-1.1,0.8-1.3c0.4-0.1,0.7,0.1,0.9,0.7c0.1,0.3,0,0.6-0.1,0.9c-0.2,0.3-0.4,0.4-0.6,0.5c-0.3,0.1-0.5,0-0.7-0.1
			C158.8,32.7,158.8,32.5,158.8,32.2z"/>
		<path fill="#78909C" d="M164.1,31.2l0.2,0.1c0,2.1,0,3.5,0.1,4.3c0.1,1.2,0.2,1.9,0.2,2.1v0.1c1-0.6,1.7-2.1,2.1-4.2
			c0.2-1.2,0.2-2,0.2-2.6h0.1l0,0c0.4,0,0.6,0.3,0.7,0.9c0.1,1-0.1,2.4-0.6,4.1c-0.3,0.8-0.8,1.6-1.4,2.5c0,0.5,0.3,1.2,0.8,2.2
			c0.4,0.6,1,0.9,1.8,0.7s1.4-1.1,1.9-2.9l0.3-1.2l0,0c0.2,0.1,0.4,0.4,0.4,0.8c0.2,1.8-0.3,3.2-1.5,4c-0.4,0.2-0.8,0.3-1.1,0.4
			c-1.2,0.1-2.2-0.5-3-1.7c-0.2-0.4-0.4-0.7-0.4-0.9l0,0V40c0,0.4,0.3,1.3,0.7,2.9c0,0.1-0.1,0.2-0.2,0.2c-0.4-0.1-0.8-0.3-1.2-0.8
			c-0.3-0.6-0.6-1.6-0.7-3l-0.2-2c-0.2-1.7-0.2-3.4-0.1-5c0.2-0.4,0.4-0.8,0.6-0.9C163.9,31.2,164,31.2,164.1,31.2z"/>
		<path fill="#78909C" d="M175.6,37.2c0.1,0.2,0.2,0.5,0.3,0.8c0.1,1.1,0,2-0.4,2.8S174.6,42,174,42c-0.2,0-0.4,0-0.5-0.1
			c-1.3-0.3-2.1-1.7-2.4-4.1c-0.2-1.7-0.1-3.2,0.2-4.5c0.1-0.5,0.4-0.9,0.8-1c0.1,0,0.2,0,0.3,0.1c-0.2,1.5-0.2,3-0.1,4.5
			c0.2,2.6,0.7,3.9,1.2,4.1c0.3,0.1,0.7-0.2,1.1-1c0.4-0.8,0.6-1.7,0.7-2.8C175.4,37,175.5,36.9,175.6,37.2z M171.1,31
			c0-0.7,0.3-1.1,0.8-1.3c0.4-0.1,0.7,0.1,0.9,0.7c0.1,0.3,0,0.6-0.1,0.9c-0.2,0.3-0.4,0.4-0.6,0.5c-0.3,0.1-0.5,0-0.7-0.1
			S171.1,31.3,171.1,31z"/>
		<path fill="#78909C" d="M177,20c0.5,0,1,0.4,1.5,1.3c0.3,0.7,0.6,1.7,0.7,2.8c0.2,2.2,0,4.4-0.7,6.6c-0.1,0.3-0.2,0.6-0.3,0.9l0,0
			c0.2-0.1,0.4-0.2,0.6-0.2c0.9-0.1,1.7,0.6,2.5,1.9c0.5,1,0.8,2.1,0.9,3.3c0.2,1.9-0.3,3.3-1.4,4.4c-0.5,0.4-0.9,0.6-1.4,0.6h-0.1
			c-0.5,0-0.9-0.1-1.3-0.4c0.1,0.4,0.2,0.8,0.3,1.2c0,0.1-0.1,0.1-0.1,0.1l0,0c-0.2,0-0.5-0.1-0.9-0.4c-0.4-0.4-0.6-0.9-0.6-1.5
			c-0.3-1.8-0.6-3.8-0.8-6l-0.2-1.8c0,0,0-0.1,0-0.2v-0.1l-0.1-1.1c-0.2-1.9-0.2-4.2,0-7.1c0.1-0.8,0.2-1.4,0.3-1.7
			C175.9,21,176.3,20.1,177,20z M176.7,32.1l0.1,0.6c1.1-2.1,1.4-5.1,1.1-8.9c-0.1-1.6-0.4-2.4-0.6-2.4c-0.3,0-0.5,1.4-0.7,4.2
			C176.5,27.5,176.5,29.7,176.7,32.1z M177.2,37L177.2,37c0.2,1.8,0.6,3,1.5,3.6c0.2,0.1,0.4,0.2,0.6,0.2l0,0c0.6-0.1,1-0.7,1.2-2.1
			c0.1-0.6,0.1-1.3,0-1.9c-0.2-1.7-0.6-3.1-1.3-4.1c-0.3-0.3-0.5-0.5-0.8-0.4c-0.7,0.1-1.2,1-1.3,2.8
			C177.2,35.9,177.2,36.5,177.2,37z"/>
	</g>
	<g>
		<g>
			<path fill="#90A4AE" d="M57.8,23c0,0-1.1-0.1-3.1-0.1s-4.8,0-8.1,0.4c-1.7,0.2-3.5,0.5-5.3,0.8c-1.9,0.4-3.9,0.8-5.8,1.4
				c-2,0.6-4,1.3-6,2.1c-1,0.4-2,0.9-3,1.4c-0.5,0.3-1,0.5-1.5,0.8l-1.4,0.8c-1,0.5-1.9,1.2-2.8,1.8c-0.9,0.6-1.8,1.3-2.6,2
				c-1.7,1.4-3.2,2.8-4.6,4.4c-0.7,0.8-1.4,1.5-2,2.3s-1.3,1.5-1.8,2.3s-1.1,1.5-1.6,2.3s-0.9,1.5-1.4,2.2C6.4,48.6,6,49.3,5.7,50
				c-0.4,0.7-0.7,1.3-1,1.9c-0.6,1.1-1.2,2.1-1.5,3C2.5,56.8,2,57.8,2,57.8l-0.8-0.3c0,0,0.3-1.1,0.8-3c0.2-1,0.7-2.1,1.2-3.4
				c0.2-0.7,0.5-1.3,0.9-2c0.3-0.7,0.6-1.5,1.1-2.2c0.4-0.7,0.9-1.5,1.3-2.3s1-1.6,1.6-2.4c1.1-1.6,2.4-3.2,4-4.8
				c1.5-1.6,3.2-3,5-4.4c0.9-0.7,1.8-1.3,2.8-1.9s1.9-1.2,2.9-1.7l1.5-0.8c0.5-0.3,1-0.5,1.5-0.7c1-0.5,2.1-0.9,3.1-1.3
				c2.1-0.8,4.2-1.5,6.2-2c2.1-0.6,4.1-0.9,6-1.2c1.9-0.3,3.7-0.5,5.4-0.6C53.3,22.3,57.7,23,57.8,23L57.8,23z"/>
		</g>
		<g>
			<g>
				<polygon fill="#90A4AE" points="0,47.2 1.6,47.1 1.9,57.6 8.4,49.4 9.7,50.3 0.5,62 				"/>
			</g>
		</g>
	</g>
</g>
</svg>
