<?xml version="1.0" encoding="utf-8"?>
<!-- Generator: Adobe Illustrator 18.0.0, SVG Export Plug-In . SVG Version: 6.00 Build 0)  -->
<!DOCTYPE svg PUBLIC "-//W3C//DTD SVG 1.1//EN" "http://www.w3.org/Graphics/SVG/1.1/DTD/svg11.dtd">
<svg version="1.1" id="Layer_1" xmlns="http://www.w3.org/2000/svg" xmlns:xlink="http://www.w3.org/1999/xlink" x="0px" y="0px"
	 width="161.2px" height="75.8px" viewBox="0 0 161.2 75.8" enable-background="new 0 0 161.2 75.8" xml:space="preserve">
<g>
	<path fill="#78909C" d="M11.2,1.6l0.1,0c2.4,0.1,4,1.8,4.8,5c0.2,0.8,0.2,1.6,0.2,2.3l0,0.3c-0.1,2-0.7,3.3-1.9,3.8
		C14.2,13,14.1,13,14,13l-0.1,0c0,0,0,0,0-0.1l0,0c0.2-0.8,0.3-1.5,0.4-2.1c0-0.3,0.1-0.6,0.1-0.9l0-0.7C14.5,6.9,14,5,12.9,3.4
		c-0.5-0.5-1-0.8-1.6-0.8C9.3,2.5,7.2,4.4,5,8.4c-1.3,2.6-2,5.4-2.1,8.3c-0.2,3.9,0.6,6.8,2.5,8.8c0.9,0.8,2,1.3,3.2,1.4
		c2.5,0.1,4.5-1.3,6-4.2c0.6-1.6,1-2.6,1-3c0.1-0.2,0.1-0.4,0.2-0.4c0.3,0,0.4,0.4,0.4,1.2l0,0.1c-0.2,3.2-1.5,5.4-3.9,6.8
		C11.2,27.8,10,28,8.9,28c-2.6-0.1-4.8-1.5-6.4-4.1C1.3,22,0.8,19.6,1,16.7c0.3-5.2,2.1-9.5,5.4-12.9C8,2.2,9.6,1.5,11.2,1.6z"/>
	<path fill="#78909C" d="M21.9,6c0.5,0,0.9,0.5,1.3,1.5c0.2,0.8,0.3,1.7,0.2,2.9c-0.1,2.2-0.6,4.3-1.6,6.4c-0.2,0.3-0.3,0.6-0.5,0.9
		l0,0c0.2-0.1,0.4-0.1,0.6-0.1c0.9,0,1.6,0.8,2.2,2.3c0.3,1.1,0.5,2.2,0.4,3.4c-0.1,1.9-0.8,3.3-2,4.1c-0.5,0.3-1,0.4-1.5,0.4
		l-0.1,0c-0.5,0-0.9-0.2-1.2-0.6c0,0.5,0.1,0.9,0.1,1.2c0,0.1-0.1,0.1-0.2,0.1l0,0c-0.2,0-0.5-0.2-0.8-0.5c-0.3-0.4-0.5-1-0.4-1.6
		c-0.1-1.8-0.1-3.8,0.1-6.1l0.1-1.8c0,0,0-0.1,0-0.2c0,0,0-0.1,0-0.1l0.1-1.1c0.1-1.9,0.4-4.2,1-7c0.2-0.8,0.4-1.3,0.5-1.6
		C20.6,6.8,21.2,6,21.9,6z M19.7,22.9L19.7,22.9c-0.1,1.8,0.2,3,0.9,3.8c0.2,0.2,0.4,0.3,0.6,0.3l0,0c0.6,0,1.1-0.6,1.5-1.9
		c0.2-0.6,0.2-1.2,0.3-1.9c0.1-1.7-0.2-3.1-0.8-4.2c-0.2-0.3-0.5-0.5-0.7-0.5c-0.7,0-1.3,0.8-1.6,2.6C19.8,21.7,19.7,22.3,19.7,22.9
		z M19.9,17.9l0,0.6c1.4-2,2.2-4.9,2.4-8.7c0.1-1.6,0-2.4-0.3-2.4c-0.3,0-0.7,1.3-1.3,4C20.3,13.4,20.1,15.5,19.9,17.9z"/>
	<path fill="#78909C" d="M30.5,23.4c0.1,0.2,0.2,0.5,0.1,0.8c0,1.1-0.3,2-0.8,2.7c-0.5,0.7-1,1-1.7,1c-0.2,0-0.3-0.1-0.5-0.1
		c-1.2-0.5-1.8-2-1.8-4.4c0.1-1.7,0.3-3.2,0.8-4.4c0.2-0.5,0.5-0.8,1-0.9c0.1,0,0.2,0.1,0.2,0.2c-0.4,1.5-0.6,3-0.7,4.5
		c-0.1,2.6,0.1,4,0.6,4.2c0.3,0.1,0.7-0.1,1.3-0.8c0.5-0.7,0.9-1.6,1.1-2.7C30.3,23.2,30.4,23.2,30.5,23.4z M26.9,16.7
		c0.1-0.7,0.5-1.1,1-1.1c0.5,0,0.7,0.2,0.8,0.8c0,0.3-0.1,0.6-0.3,0.9c-0.2,0.2-0.4,0.4-0.7,0.4c-0.3,0-0.5,0-0.6-0.2
		C26.9,17.3,26.8,17,26.9,16.7z"/>
	<path fill="#78909C" d="M32.6,17.2L32.6,17.2c0.1,0,0.1,0,0.1,0.1c-0.4,1.7-0.7,3.5-0.8,5.3l0,0.2c-0.1,2.2,0.1,3.5,0.6,4.1
		c0.2,0.2,0.4,0.2,0.6,0.2c0.7,0,1.3-1.3,1.7-4.1l0.7-4.1c0.1-0.4,0.3-0.7,0.6-0.9c0.3-0.1,0.5-0.2,0.6-0.2l0,0c0.1,0,0.1,0,0.1,0.1
		l0,0c-0.4,2.1-0.6,3.9-0.7,5.4c-0.1,2.5,0.1,3.7,0.8,3.8c0.3,0,0.7-0.5,1.2-1.5c0.1-0.3,0.3-0.7,0.4-1.3c0.1-0.2,0.1-0.4,0.1-0.6
		c0,0,0,0,0.1,0c0.1,0,0.2,0.2,0.3,0.6c0,0.2,0.1,0.4,0,0.6l0,0.1c-0.1,1.3-0.4,2.2-1,2.8c-0.1,0.1-0.2,0.1-0.3,0.2
		c-0.2,0.1-0.5,0.2-0.8,0.1c-1,0-1.6-0.8-2-2.1l0,0c-0.1,0.3-0.2,0.6-0.4,0.9c-0.6,0.9-1.3,1.4-2.1,1.3c-1.1-0.1-1.7-1-2-2.7
		c-0.1-0.7-0.1-1.5-0.1-2.3c0.1-1.8,0.4-3.5,1-5.2C31.7,17.4,32.1,17.1,32.6,17.2z M33.9,14.8c0.1,0.1,0.2,0.2,0.3,0.4
		c0.2,0.2,0.4,0.3,0.7,0.3c0.5,0,0.8-0.2,1.1-0.6c0,0,0,0,0.1,0c0,0.1,0,0.2,0,0.4c-0.1,0.3-0.2,0.5-0.4,0.6
		c-0.2,0.2-0.5,0.3-0.7,0.4c-0.2,0-0.3,0-0.5-0.1c-0.5-0.2-0.8-0.5-0.9-1c0-0.1,0-0.2,0-0.2c0-0.1,0-0.2,0.1-0.2
		C33.8,14.7,33.9,14.7,33.9,14.8z"/>
	<path fill="#78909C" d="M54,17.7L54,17.7c0.1,0,0.1,0,0.1,0.1c-0.5,3.1-0.8,5.5-0.8,7.2c-0.1,1.5,0.1,2.6,0.4,3.2
		c0.1,0.1,0.3,0.2,0.4,0.2l0.1,0c0.4,0,0.9-0.7,1.5-2.2c0.1-0.2,0.2-0.6,0.3-1.4l0.1,0c0.2,0.3,0.4,0.6,0.3,1l0,0.5
		c-0.1,1.7-0.6,2.7-1.5,3c-0.1,0.1-0.3,0.1-0.5,0.1c-1.2-0.1-1.9-0.8-2.4-2.2c-0.1-0.3-0.1-1-0.2-2c0-0.3,0.1-0.6,0.1-1l0,0
		c-1.6,0-2.4,0.1-2.4,0.2c0,2.9-0.1,4.5-0.1,4.9c0,0.1-0.1,0.1-0.2,0.2l-0.1,0c-0.9-0.2-1.3-0.6-1.2-1.3c0-0.6,0-1.2,0-1.9l0.1-1.1
		c0.1-2.7,0.5-4.9,1.1-6.6c0.4-0.5,0.7-0.7,1-0.7l0.1,0c0,0,0.1,0,0.1,0.1c-0.4,1.9-0.6,3.5-0.7,4.8l0,0.3c0,0,0.1,0,0.1,0
		c1.5,0,2.4-0.1,2.5-0.1c0.5-3.1,0.8-4.6,1-4.6C53.6,17.8,53.9,17.7,54,17.7z"/>
	<path fill="#78909C" d="M62.6,20.4c0.2-0.3,0.5-0.6,0.9-0.6c0.1,0,0.2,0,0.2,0c0,0,0,0.1,0,0.2c-0.5,1.5-0.7,3.1-0.8,4.8
		c-0.1,2.3,0.1,3.5,0.6,3.6c0.3,0.1,0.6-0.2,1.1-0.8c0.4-0.6,0.8-1.4,1-2.4c0-0.1,0.1-0.2,0.2,0c0.2,0.2,0.3,0.6,0.2,1.1
		c-0.1,1-0.3,1.8-0.6,2.4c-0.4,0.6-0.9,0.8-1.4,0.8c-0.3,0-0.6-0.1-1-0.3c-0.6-0.4-1-1.1-1.2-2.2c-0.5,1.8-1.3,2.6-2.4,2.5
		c-0.9,0-1.6-0.5-2.1-1.3c-0.4-0.7-0.6-1.6-0.5-2.6c0-0.7,0.2-1.4,0.4-2.3c0.4-1.4,1-2.6,1.8-3.4c0.7-0.7,1.3-1.1,2-1
		C61.6,18.9,62.2,19.4,62.6,20.4z M61.8,22.5c0.2-1.7-0.1-2.6-0.7-2.8c-0.4-0.1-0.9,0.3-1.5,1.2c-0.6,0.9-1.1,2-1.4,3.3
		c-0.1,0.6-0.2,1.2-0.2,1.7c-0.1,1.6,0.2,2.4,0.9,2.6c0.5,0.1,1.1-0.4,1.7-1.4C61.2,25.9,61.6,24.4,61.8,22.5z"/>
	<path fill="#78909C" d="M71.2,8.5c1.1,0.1,2,0.2,2.6,0.4l0,0.1c-0.1,0.3-0.3,0.6-0.6,0.7c-0.2,0.1-0.4,0.1-0.5,0.1
		c-2.7-0.1-4.1-0.1-4.3,0.1c-0.2,0.2-0.2,0.4-0.1,0.7s0.5,1.1,1,2.5c0.8,1.9,1.5,3.9,2,6c0.2,0.8,0.4,1.8,0.6,3
		c0.1,0.8,0.2,1.2,0.1,1.4l0,0c0.3-0.3,0.5-0.4,0.6-0.4l0.1,0c0,0,0,0.1,0,0.1c0,0.4-0.2,0.8-0.7,1.3l0,0.9
		c-0.1,2.4-0.8,3.9-2.1,4.6c-0.3,0.2-0.6,0.2-1,0.2l-0.1,0c-1.3-0.1-2.2-1-2.8-2.9C66,26.6,65.9,26,66,25.4c0.1-1.4,0.5-2.8,1.3-4.2
		l0.5-0.7c0.5-0.6,1-0.8,1.3-0.8c0.3,0,0.5,0.2,0.7,0.5l0,0.1l0,0.1c0,0.2-0.1,0.4-0.2,0.6c0,0.1,0,0.2-0.1,0.4l0,0
		c0,0.6,0.2,1.3,0.8,2c0.3,0.2,0.6,0.4,0.8,0.4c0-0.4-0.2-1.5-0.7-3.4c-0.5-2.1-1.1-3.9-1.7-5.4c-1-2.5-1.6-3.9-1.7-4.3l-0.1-0.5
		c0-0.5,0.2-0.9,0.6-1.1c0.4-0.2,0.9-0.4,1.6-0.4C69.7,8.5,70.5,8.5,71.2,8.5z M68.4,22.1c-0.5,1.1-0.8,2.3-0.9,3.7
		c-0.1,1.5,0.2,2.7,0.9,3.4c0.2,0.1,0.3,0.2,0.4,0.2l0.1,0c0.6,0,1.2-0.7,1.7-2.3c0.2-0.6,0.2-1.2,0.3-1.8l0-0.4l-0.2,0
		c-0.9,0-1.6-0.6-2-1.7C68.5,22.8,68.5,22.4,68.4,22.1L68.4,22.1z"/>
	<path fill="#78909C" d="M78.4,25.9c0.1,0.2,0.2,0.5,0.1,0.8c0,1.1-0.3,2-0.8,2.7c-0.5,0.7-1,1-1.7,1c-0.2,0-0.3-0.1-0.5-0.1
		c-1.2-0.5-1.8-2-1.8-4.4c0.1-1.7,0.3-3.2,0.8-4.4c0.2-0.5,0.5-0.8,1-0.9c0.1,0,0.2,0.1,0.2,0.2c-0.4,1.5-0.6,3-0.7,4.5
		c-0.1,2.6,0.1,4,0.6,4.2c0.3,0.1,0.7-0.1,1.3-0.8c0.5-0.7,0.9-1.6,1.1-2.7C78.3,25.7,78.3,25.7,78.4,25.9z M74.9,19.2
		c0.1-0.7,0.5-1.1,1-1.1c0.5,0,0.7,0.2,0.8,0.8c0,0.3-0.1,0.6-0.3,0.9c-0.2,0.2-0.4,0.4-0.7,0.4c-0.3,0-0.5,0-0.6-0.2
		C74.9,19.8,74.8,19.5,74.9,19.2z"/>
	<path fill="#78909C" d="M79.7,29.5c-0.2,4.3-0.3,7.7-0.1,10.4c0,0.1,0,0.2,0,0.2c-0.1,0-0.1,0-0.3,0c-0.8-0.3-1.2-0.9-1.2-1.9
		c-0.1-1.6,0-3.6,0.1-5.8c0.3-5.1,0.8-9.3,1.5-12.4c0.2-0.7,0.5-1.1,1-1.3c0.1-0.1,0.2-0.1,0.3,0l0,0.2c-0.2,1.1-0.5,2.7-0.7,4.6
		c0.7-2.4,1.8-3.5,3.1-3.4c0.4,0,0.8,0.2,1.1,0.4c1,0.7,1.5,2,1.4,3.9c0,0.7-0.2,1.5-0.4,2.4c-0.4,1.3-0.9,2.3-1.6,3s-1.4,1-2.2,1
		C80.8,30.6,80.2,30.2,79.7,29.5z M80.1,26.6c-0.2,1.9,0.2,2.9,1.1,2.9c0.5,0,1-0.3,1.5-0.9c0.6-0.7,1.1-1.7,1.4-3.1
		c0.1-0.5,0.2-1.1,0.2-1.6c0-0.8,0-1.5-0.2-2c-0.2-0.5-0.3-0.9-0.5-0.9c-0.6-0.1-1.2,0.3-2,1.3C80.9,23.5,80.4,24.9,80.1,26.6z"/>
	<path fill="#78909C" d="M22.7,46.7c0,0.4,0,0.7-0.1,1c-0.1,1.5-0.4,2.6-1,3.4c-0.6,0.8-1.3,1.2-2.1,1.2c-1-0.1-1.8-0.6-2.4-1.7
		c-0.5-0.9-0.7-1.9-0.6-3.1c0.1-1,0.3-2.1,0.7-3.2c0.5-1.3,1.2-2.1,1.9-2.4c0.3-0.2,0.7,0,1,0.3c0.5-0.1,1,0.2,1.4,0.8
		c0.5,0.7,0.8,1.6,0.9,2.6c0.1-0.1,0.3-0.2,0.5-0.4c0.2-0.2,0.3-0.1,0.3,0C23.3,45.9,23.1,46.3,22.7,46.7z M21.4,47.1
		c-0.7,0-1.3-0.3-1.8-0.9c-0.4-0.5-0.6-1.1-0.6-1.8c-0.6,1-0.9,2.3-0.9,3.7c-0.1,1,0.1,1.8,0.4,2.5c0.3,0.5,0.5,0.9,0.8,0.9
		c0.5,0.1,1-0.2,1.4-1.1C21.1,49.5,21.4,48.4,21.4,47.1z M20.3,43c-0.2,0-0.3,0.1-0.4,0.5c0,0.5,0.1,1,0.4,1.4
		c0.3,0.6,0.7,0.9,1.2,1C21.3,44.1,20.9,43.1,20.3,43z"/>
	<path fill="#78909C" d="M25.6,52c-0.7-0.6-0.9-1.3-0.8-2.2c0.1-0.8,0.6-1.6,1.7-2.2c1-0.6,1.8-1.2,2.4-1.6c0.6-0.4,0.8-0.9,0.8-1.5
		c0-0.5-0.2-1-0.6-1.3c-0.4-0.3-0.8-0.4-1.4-0.4c-0.6,0-1,0.2-1.3,0.6c-0.3,0.4-0.4,0.8-0.4,1.2c0.1,0.4,0.1,0.7,0.2,0.9
		c0.1,0.2,0,0.3-0.3,0.2c-0.3-0.1-0.5-0.3-0.7-0.6c-0.2-0.3-0.3-0.7-0.3-1.3s0.3-1.1,0.9-1.5c0.6-0.4,1.3-0.6,2.2-0.6
		c0.9,0,1.6,0.3,2.2,0.9s0.8,1.3,0.8,2.2c-0.1,0.9-0.7,1.7-1.7,2.4C28,48,27.2,48.6,26.6,49c-0.6,0.4-0.8,0.9-0.8,1.3
		c0.1,0.5,0.3,0.8,0.7,1.2c0.4,0.3,0.8,0.5,1.2,0.5c0.6,0.1,1.3-0.3,2.1-1c0.7-0.7,1.2-1.5,1.5-2.4c0.1-0.3,0.2-0.3,0.3-0.1
		c0.1,0.2,0,0.7-0.1,1.3c-0.3,1-0.7,1.7-1.3,2.3c-0.7,0.6-1.4,0.9-2.2,0.9C27.1,53,26.3,52.6,25.6,52z"/>
	<path fill="#78909C" d="M38.2,47.5c0,0.4,0,0.7-0.1,1c-0.1,1.5-0.4,2.6-1,3.4c-0.6,0.8-1.3,1.2-2.1,1.2c-1-0.1-1.8-0.6-2.4-1.7
		c-0.5-0.9-0.7-1.9-0.6-3.1c0.1-1,0.3-2.1,0.7-3.2c0.5-1.3,1.2-2.1,1.9-2.4c0.3-0.1,0.7,0,1,0.3c0.5-0.1,1,0.2,1.4,0.8
		c0.5,0.7,0.8,1.6,0.9,2.6c0.1-0.1,0.3-0.2,0.5-0.4c0.2-0.2,0.3-0.1,0.3,0C38.9,46.7,38.7,47.1,38.2,47.5z M36.9,47.9
		c-0.7,0-1.3-0.3-1.8-0.9c-0.4-0.5-0.6-1.1-0.6-1.8c-0.6,1-0.9,2.3-0.9,3.7c-0.1,1,0.1,1.8,0.4,2.5c0.3,0.5,0.5,0.9,0.8,0.9
		c0.5,0.1,1-0.2,1.4-1.1C36.7,50.3,36.9,49.2,36.9,47.9z M35.8,43.8c-0.2,0-0.3,0.1-0.4,0.5c0,0.5,0.1,1,0.4,1.4
		c0.3,0.6,0.7,0.9,1.2,1C36.9,44.9,36.5,43.9,35.8,43.8z"/>
	<path fill="#78909C" d="M46.4,42.3L46.4,42.3c0.3,0,0.4,0.3,0.4,0.8c0.1,0,0.1,1.7-0.1,5.2c0,1,0.2,1.9,0.4,2.6
		c0.4,1.2,0.7,1.8,1,1.9c0.4,0,0.8-0.7,1.3-2.1c0.2-0.6,0.2-1.1,0.3-1.5l0.1,0c0.2,0.3,0.4,0.8,0.3,1.3c-0.1,1.9-0.6,3-1.5,3.3
		c-0.2,0-0.4,0-0.5,0c-1.3-0.1-2.1-1.4-2.5-3.9c-0.1-0.8-0.1-1.6-0.1-2.6l0.1-1.3l0,0l-1.2,4.3c-0.6,1.8-1.1,2.8-1.5,3.1
		c-0.3,0.2-0.6,0.3-1,0.2l-0.1,0c-0.9,0-1.4-0.8-1.6-2.4c0-0.4,0-0.7,0-1.2l0-0.1c0-0.6,0.2-1.1,0.5-1.3l0,0c0,0,0.1,0,0.1,0l0,0.1
		c0,1,0.2,2.1,0.7,3.4c0.2,0.2,0.3,0.3,0.5,0.3l0.1,0c0.2-0.1,0.7-1.1,1.2-3c1.1-3.6,2.1-6,2.9-7C46.2,42.4,46.3,42.3,46.4,42.3z"/>
	<path fill="#78909C" d="M56.3,48.4c0,0.4,0,0.7-0.1,1c-0.1,1.5-0.4,2.6-1,3.4c-0.6,0.8-1.3,1.2-2.1,1.2c-1-0.1-1.8-0.6-2.4-1.7
		c-0.5-0.9-0.7-1.9-0.6-3.1c0.1-1,0.3-2.1,0.7-3.2c0.5-1.3,1.2-2.1,1.9-2.4c0.3-0.1,0.7,0,1,0.3c0.5-0.1,1,0.2,1.4,0.8
		c0.5,0.7,0.8,1.6,0.9,2.6c0.1-0.1,0.3-0.2,0.5-0.4c0.2-0.2,0.3-0.1,0.3,0C56.9,47.6,56.7,48,56.3,48.4z M55,48.8
		c-0.7,0-1.3-0.3-1.8-0.9c-0.4-0.5-0.6-1.1-0.6-1.8c-0.6,1-0.9,2.3-0.9,3.7c-0.1,1,0.1,1.8,0.4,2.5c0.3,0.5,0.5,0.9,0.8,0.9
		c0.5,0.1,1-0.2,1.4-1.1C54.7,51.3,54.9,50.2,55,48.8z M53.8,44.8c-0.2,0-0.3,0.1-0.4,0.5c0,0.5,0.1,1,0.4,1.4
		c0.3,0.6,0.7,0.9,1.2,1C54.9,45.8,54.5,44.9,53.8,44.8z"/>
	<path fill="#78909C" d="M63.7,43.8L63.7,43.8c0.1,0,0.1,0,0.1,0l0,0.1c-0.1,0.6-0.2,1.1-0.3,1.5c-0.2,1.3-0.4,2.6-0.5,4
		c-0.1,2.3,0.1,3.6,0.6,4.2c0.2,0.2,0.4,0.2,0.6,0.2c0.7,0,1.3-1.4,1.7-4.3l0.7-4c0.1-0.3,0.2-0.5,0.4-0.7c0.2-0.2,0.4-0.3,0.5-0.3
		c0.2-0.1,0.3-0.1,0.4-0.1l0.1,0c0.1,0,0.1,0,0.1,0.1c-0.4,2.1-0.6,4-0.7,5.5c-0.1,1.9,0,3.1,0.4,3.6c0.1,0.1,0.2,0.2,0.3,0.2l0.1,0
		c0.3,0,0.6-0.4,1-1.2c0.2-0.4,0.3-0.8,0.5-1.5c0.1-0.3,0.1-0.5,0.1-0.7l0,0l0,0c0.1,0.2,0.2,0.3,0.3,0.6c0.1,0.2,0.1,0.5,0.1,0.8
		c-0.1,1.2-0.3,2.1-0.8,2.7c-0.3,0.4-0.7,0.5-1.3,0.5c-1-0.1-1.7-0.8-2-2.2l0,0c0,0.2-0.2,0.5-0.5,1.1c-0.6,0.8-1.3,1.2-2,1.2
		c-0.9,0-1.5-0.6-1.8-1.8c-0.3,0.9-0.9,1.3-1.7,1.2c-1,0-1.6-0.7-2-2c-0.1-0.2-0.1-0.5-0.1-1c0-0.7,0-1.5,0-2.3l0-0.1
		c0.1-1.2,0.2-2.5,0.5-4c0.1-0.3,0.2-0.5,0.4-0.7c0.2-0.2,0.4-0.3,0.5-0.3c0.2-0.1,0.3-0.1,0.4-0.1l0.1,0c0.1,0,0.1,0,0.1,0.1
		c-0.4,2.1-0.6,4-0.7,5.5c-0.1,1.9,0,3.1,0.4,3.6c0.1,0.1,0.2,0.2,0.3,0.2l0.1,0c0.2,0,0.5-0.3,0.9-0.9c0.2-0.2,0.3-0.7,0.5-1.3
		c0-0.4,0-0.8,0-1.3c0.1-1.8,0.4-3.6,1-5.3C62.9,44.1,63.2,43.8,63.7,43.8z"/>
	<path fill="#78909C" d="M71.9,51.7c0.1,1.4,0.4,2.2,1,2.4c0.2,0.1,0.4,0.1,0.6,0.1c0.7,0,1.4-0.2,2.2-0.8c0.7-0.6,1.3-1.4,1.7-2.5
		c0-0.1,0.1-0.2,0.2-0.2c0,0,0.1,0.1,0.1,0.1c0.1,0.3,0,0.7-0.1,1c-0.2,1-0.7,1.8-1.4,2.4c-0.7,0.6-1.4,0.8-2.3,0.8
		c-0.4,0-0.9-0.1-1.3-0.3c-0.6-0.3-1.1-0.8-1.5-1.5c-0.5-0.9-0.7-1.9-0.7-3c0-0.5,0.1-0.9,0.2-1.4c0.3-1.5,0.8-2.6,1.5-3.5
		c0.6-0.7,1.3-1.1,1.9-1.1c0.3,0,0.6,0.1,0.9,0.3c0.8,0.6,1.1,1.5,1.1,2.5c0,0.4-0.1,0.8-0.2,1.2c-0.3,1-0.8,1.8-1.6,2.3
		C73.5,51.4,72.7,51.7,71.9,51.7z M71.9,51.1c0.9-0.1,1.6-0.7,2.2-1.7c0.5-0.8,0.7-1.7,0.8-2.7c0-0.7-0.1-1.2-0.4-1.2
		c-0.4-0.1-0.8,0.3-1.4,1.1c-0.6,0.9-1,2-1.1,3.3C71.9,50.4,71.8,50.8,71.9,51.1z"/>
	<path fill="#78909C" d="M83.6,44.2L83.6,44.2c0.1,0,0.1,0,0.1,0.1c-0.5,3.1-0.8,5.5-0.8,7.2c-0.1,1.5,0.1,2.6,0.4,3.2
		c0.1,0.1,0.3,0.2,0.4,0.2l0.1,0c0.4,0,0.9-0.7,1.5-2.2c0.1-0.2,0.2-0.6,0.3-1.4l0.1,0c0.2,0.3,0.4,0.6,0.3,1l0,0.5
		c-0.1,1.7-0.6,2.7-1.5,3c-0.1,0.1-0.3,0.1-0.5,0.1c-1.2-0.1-1.9-0.8-2.4-2.2c-0.1-0.3-0.1-1-0.2-2c0-0.3,0.1-0.6,0.1-1l0,0
		c-1.6,0-2.4,0.1-2.4,0.2c0,2.9-0.1,4.5-0.1,4.9c0,0.1-0.1,0.1-0.2,0.2l-0.1,0c-0.9-0.2-1.3-0.6-1.2-1.3c0-0.6,0-1.2,0-1.9l0.1-1.1
		c0.1-2.7,0.5-4.9,1.1-6.6c0.4-0.5,0.7-0.7,1-0.7l0.1,0c0,0,0.1,0,0.1,0.1c-0.4,1.9-0.6,3.5-0.7,4.8l0,0.3c0,0,0.1,0,0.1,0
		c1.5,0,2.4-0.1,2.5-0.1c0.5-3.1,0.8-4.6,1-4.6C83.1,44.4,83.4,44.2,83.6,44.2z"/>
	<path fill="#78909C" d="M88,44.6L88,44.6c0.1,0,0.1,0.1,0.1,0.1c-0.4,1.9-0.6,3.3-0.6,4.2c0,0.3,0,0.5,0,0.8
		c0.4-0.3,1.1-0.5,1.9-0.4l0,0c0.9,0,1.6,0.6,2.2,1.7c0.1,0.1,0.2,0.4,0.3,0.8c0.1,0,0.3-0.2,0.6-0.7l0,0c0.1,0,0.1,0.2,0.1,0.4l0,0
		c0,0.5-0.3,0.9-0.7,1.4l0,0l0,0.1c-0.1,1.4-0.8,2.3-2.2,2.8C89.4,56,89,56,88.6,56c-1.1-0.1-1.9-0.7-2.4-1.8
		c-0.2-0.6-0.2-1.3-0.2-2.3c0-0.1,0-0.3,0.1-0.4l0-0.2c0.2-4.1,0.7-6.2,1.4-6.5C87.7,44.7,87.8,44.6,88,44.6z M87.2,52.5
		c-0.1,1.1,0.3,1.9,1.2,2.4c0.1,0.1,0.3,0.1,0.4,0.1l0.1,0c0.6,0,1.1-0.3,1.4-1c0,0,0.1-0.3,0.1-0.7c-0.4,0-0.9-0.3-1.4-0.8
		c-0.5-0.7-0.7-1.2-0.7-1.8c0,0,0-0.1-0.1-0.3c-0.5,0.3-0.8,0.7-0.8,1C87.4,51.4,87.3,51.8,87.2,52.5z M89,50.3
		c0,0.3,0.3,0.8,0.8,1.4c0.2,0.2,0.4,0.3,0.6,0.4l0,0c-0.1-0.7-0.4-1.1-0.7-1.3C89.5,50.5,89.2,50.3,89,50.3L89,50.3z"/>
</g>
<g>
	<g>
		<path fill="#90A4AE" d="M103.4,30.7c0,0,1.1-0.1,3.1-0.1c2,0,4.7,0.1,8.1,0.6c1.7,0.2,3.5,0.5,5.3,0.9c1.9,0.4,3.9,0.9,5.8,1.6
			c1,0.3,2,0.7,3,1.1c1,0.4,2,0.8,3,1.3c1,0.5,2,1,3,1.5c1,0.5,2,1.1,2.9,1.7c1,0.6,1.9,1.3,2.8,1.9c0.9,0.7,1.8,1.4,2.6,2.1
			c1.7,1.5,3.3,3,4.6,4.6c1.4,1.6,2.6,3.3,3.6,4.9c0.5,0.8,1,1.6,1.4,2.5c0.4,0.8,0.8,1.6,1.2,2.4c0.3,0.8,0.6,1.5,0.9,2.3
			c0.3,0.7,0.6,1.4,0.8,2.1c0.4,1.3,0.8,2.4,1,3.4c0.4,1.9,0.7,3,0.7,3l-0.9,0.2c0,0-0.4-1-1-2.9c-0.3-0.9-0.8-2-1.3-3.2
			c-0.2-0.6-0.5-1.3-0.9-1.9c-0.3-0.7-0.7-1.4-1-2.1c-0.8-1.4-1.6-3-2.7-4.6c-0.5-0.8-1.1-1.6-1.6-2.4c-0.5-0.8-1.2-1.6-1.8-2.4
			c-1.3-1.6-2.7-3.1-4.3-4.6c-0.8-0.7-1.6-1.4-2.4-2.1c-0.9-0.6-1.7-1.3-2.6-1.9c-0.9-0.6-1.8-1.2-2.8-1.8c-0.9-0.6-1.9-1.1-2.9-1.6
			c-1-0.5-1.9-0.9-2.9-1.4c-1-0.4-1.9-0.8-2.9-1.1c-1.9-0.7-3.9-1.3-5.7-1.8c-1.8-0.5-3.6-0.9-5.2-1.1c-3.3-0.6-6-0.8-8-0.9
			c-1.9-0.1-3,0-3,0L103.4,30.7z"/>
	</g>
	<g>
		<g>
			<polygon fill="#90A4AE" points="149.2,60.9 150.5,59.9 156.6,68.5 157.4,58 159,58.1 157.8,73 			"/>
		</g>
	</g>
</g>
</svg>
