<?xml version="1.0" encoding="utf-8"?>
<!-- Generator: Adobe Illustrator 18.0.0, SVG Export Plug-In . SVG Version: 6.00 Build 0)  -->
<!DOCTYPE svg PUBLIC "-//W3C//DTD SVG 1.1//EN" "http://www.w3.org/Graphics/SVG/1.1/DTD/svg11.dtd">
<svg version="1.1" id="Layer_1" xmlns="http://www.w3.org/2000/svg" xmlns:xlink="http://www.w3.org/1999/xlink" x="0px" y="0px"
	 width="199px" height="95.8px" viewBox="0 0 199 95.8" enable-background="new 0 0 199 95.8" xml:space="preserve">
<g>
	<path fill="#78909C" d="M68.3,39.2c0.5,0,0.9,0.2,1.4,0.8c0.2,0.2,0.4,1.2,0.6,2.9c0.5,3.1,0.9,5.7,1.4,7.9
		c0.6,2.5,1.2,4.7,1.8,6.6c1.1,0,1.7,0,1.7,0.1v0.1c0,0.2-0.2,0.5-0.7,0.9c-0.2,0.1-0.4,0.1-0.5,0.2h-0.1c0.6,1.9,1.3,3.8,2.1,5.7
		l1.1,2.2v0.1c0,0.1-0.1,0.2-0.2,0.2l0,0c-1,0.1-1.9-1-2.7-3.2c-0.5-1-1.1-2.6-1.7-4.8c-1.7,0.2-4.3,0.6-7.8,1.4
		c-0.5,1.2-1.1,2.5-1.9,3.9c-1.5,2.4-2.7,3.8-3.7,4.1c-0.1,0.1-0.3,0.1-0.6,0.2c-0.5,0-0.8-0.1-0.9-0.2c0-0.1,0.3-0.4,1-0.9
		c0.5-0.4,1.1-1.2,2-2.3c1.2-1.6,2-3,2.5-4.2l0.1-0.2l0,0c-0.4,0-1.5,0.4-3.3,1.1h-0.1c0,0-0.1,0-0.1-0.1c0-0.5,0.1-1,0.5-1.5
		c0.4-0.4,1-0.7,1.8-0.9l2.2-0.6c1.2-2.9,2.2-6.4,3-10.5c0.4-2.2,0.9-5.1,1.3-8.7C68.1,39.4,68.2,39.3,68.3,39.2z M68.2,47
		c-0.8,4.3-1.8,7.8-3,10.7c-0.2,0.5-0.3,0.7-0.3,0.7l0,0c2.1-0.4,4.2-0.6,6.4-0.8c0.1,0,0.4,0,0.9-0.1c-1.7-5.7-2.7-11-3.2-15.8
		c0-0.3-0.1-0.6-0.1-0.9v-0.1C68.7,43.1,68.5,45.1,68.2,47z"/>
	<path fill="#78909C" d="M80.9,43c1.1-0.1,2-0.1,2.6,0v0.1c-0.1,0.3-0.3,0.6-0.5,0.8c-0.2,0.1-0.3,0.1-0.5,0.2
		c-2.7,0.2-4.1,0.5-4.2,0.7c-0.2,0.2-0.1,0.4,0,0.7s0.6,1.1,1.4,2.3c1.1,1.8,2,3.6,2.9,5.7c0.3,0.8,0.7,1.7,1.1,2.9
		c0.2,0.7,0.3,1.2,0.3,1.3l0,0c0.3-0.3,0.5-0.5,0.5-0.5h0.1c0,0,0,0,0,0.1c0,0.4-0.1,0.9-0.5,1.3l0.1,0.9c0.2,2.4-0.2,4-1.4,4.9
		c-0.3,0.2-0.6,0.3-0.9,0.3h-0.1c-1.3,0.1-2.4-0.7-3.2-2.5c-0.3-0.7-0.4-1.3-0.5-1.9C78,59,78.3,57.6,78.8,56l0.4-0.8
		c0.4-0.6,0.8-1,1.2-1c0.3,0,0.5,0.1,0.7,0.4v0.1v0.1c0,0.2,0,0.4-0.2,0.6c0,0.1,0,0.2,0,0.4l0,0c0.1,0.6,0.4,1.3,1.1,1.9
		c0.3,0.2,0.6,0.3,0.8,0.3c0-0.4-0.4-1.5-1.1-3.3c-0.8-2-1.6-3.7-2.5-5.1c-1.4-2.3-2.2-3.6-2.3-4.1L76.7,45c0-0.5,0.1-0.9,0.4-1.2
		s0.8-0.5,1.6-0.6S80.2,43,80.9,43z M80.2,56.8c-0.4,1.2-0.5,2.4-0.4,3.8c0.1,1.5,0.6,2.6,1.4,3.2c0.2,0.1,0.3,0.1,0.4,0.1h0.1
		c0.6-0.1,1.1-0.9,1.3-2.5c0.1-0.6,0.1-1.2,0-1.8v-0.4h-0.2c-0.9,0.1-1.6-0.4-2.3-1.4C80.3,57.5,80.2,57.1,80.2,56.8L80.2,56.8z"/>
	<path fill="#78909C" d="M93.1,58.9c0.1,0.2,0.1,0.7,0.1,1.3c-0.1,1-0.4,1.8-1,2.5s-1.3,1.1-2.1,1.2c-1.2,0.1-2.2-0.3-3-1.3
		c-0.6-0.8-1-1.9-1.1-3.2c0-0.3-0.1-0.7-0.1-1c0-1.7,0.3-3,0.8-4.1c0.5-1,1.1-1.5,1.8-1.5c0.3,0,0.6,0,0.8,0.2
		c1,0.5,1.6,1.3,1.7,2.3c0.1,0.6,0,1.1-0.3,1.6c-0.2,0.4-0.5,0.7-0.9,0.7c-0.1,0-0.1,0-0.2-0.1c0.2-0.7,0.2-1.4,0.2-2.1
		c-0.1-1.1-0.4-1.6-0.8-1.6s-0.8,0.5-1.2,1.6c-0.4,1.2-0.6,2.5-0.5,3.8c0.1,2.2,0.6,3.5,1.5,3.8c0.2,0.1,0.5,0.1,0.7,0.1
		c0.7-0.1,1.3-0.5,2-1.4c0.6-0.8,1-1.7,1.2-2.6C92.9,58.7,93,58.7,93.1,58.9z"/>
	<path fill="#78909C" d="M99.4,57c0,0.4,0.1,0.7,0.1,1c0.1,1.5,0,2.6-0.5,3.5c-0.4,0.9-1.1,1.4-1.9,1.5c-1,0.1-1.9-0.3-2.6-1.3
		c-0.6-0.8-1-1.8-1.1-2.9c-0.1-1,0-2.1,0.3-3.2c0.3-1.3,0.9-2.2,1.6-2.7c0.3-0.2,0.7-0.1,1,0.2c0.5-0.1,1,0.1,1.5,0.6
		c0.6,0.6,1,1.4,1.3,2.5c0.1-0.1,0.3-0.2,0.5-0.4s0.2-0.2,0.3,0C99.9,56.1,99.7,56.5,99.4,57z M98.2,57.5c-0.7,0.1-1.3-0.1-1.9-0.6
		c-0.5-0.4-0.8-1-0.9-1.7C95,56.3,94.9,57.5,95,59c0.1,1,0.3,1.8,0.7,2.5c0.3,0.5,0.6,0.8,0.9,0.8c0.5,0.1,0.9-0.4,1.2-1.3
		C98.2,60,98.3,58.9,98.2,57.5z M96.4,53.7c-0.2,0-0.3,0.2-0.3,0.6c0,0.5,0.2,0.9,0.6,1.4s0.8,0.8,1.3,0.8
		C97.7,54.6,97.1,53.7,96.4,53.7z"/>
	<path fill="#78909C" d="M106.7,50.7L106.7,50.7c0.3,0,0.5,0.2,0.5,0.7c0.1,0,0.3,1.7,0.7,5.1c0.2,1,0.4,1.8,0.7,2.5
		c0.5,1.2,0.9,1.7,1.2,1.7c0.4,0,0.7-0.8,1-2.3c0.1-0.6,0.1-1.1,0-1.5h0.1c0.3,0.3,0.5,0.7,0.5,1.3c0.2,1.9-0.2,3-1,3.5
		c-0.2,0-0.4,0.1-0.5,0.1c-1.3,0.1-2.3-1.1-3-3.6c-0.2-0.8-0.4-1.6-0.5-2.6l-0.1-1.3l0,0l-0.6,4.5c-0.4,1.8-0.7,2.9-1,3.3
		c-0.2,0.2-0.6,0.3-1,0.4h-0.1c-0.9,0.1-1.6-0.6-1.9-2.1c-0.1-0.4-0.1-0.7-0.2-1.1v-0.1c-0.1-0.6,0-1.1,0.3-1.4l0,0h0.1v0.1
		c0.1,1,0.5,2,1.2,3.3c0.2,0.2,0.4,0.3,0.5,0.2h0.1c0.2-0.2,0.5-1.2,0.8-3.1c0.6-3.8,1.2-6.2,1.9-7.4
		C106.5,50.8,106.6,50.7,106.7,50.7z"/>
	<path fill="#78909C" d="M112.4,54.9c1.1-0.2,1.9-0.4,2.6-0.5c0-1,0.2-1.9,0.4-2.7c0.2-0.6,0.4-1.2,0.7-1.7c0.5-0.7,1-1.1,1.3-1.1
		c0.2,0,0.4,0.1,0.7,0.3h0.3c0.7-0.1,1.4,0.5,2.1,1.6c0.3,0.5,0.5,1,0.6,1.5c0.1,0.2,0.1,0.3,0.2,0.3c0.1-0.1,0.4-0.3,0.7-0.7v0.3
		v-0.1c0,0.5-0.1,0.9-0.6,1.5l0.1,1.4c0.2,2-0.2,3.5-1.2,4.6c-0.4,0.4-0.9,0.7-1.4,0.7h-0.1c-1.5,0.1-2.6-0.7-3.5-2.6
		c-0.3-0.7-0.4-1.3-0.5-1.9c-0.9,0.1-1.7,0.3-2.5,0.4c0.4,2.9,0.6,4.5,0.6,4.9c0,0.1,0,0.1-0.1,0.2h-0.1c-0.9,0-1.3-0.4-1.4-1.1
		c-0.1-0.5-0.2-1.2-0.3-1.9l-0.1-1.1c-0.3-2.7-0.2-4.9,0.1-6.7c0.3-0.5,0.6-0.8,0.9-0.8h0.1c0,0,0.1,0,0.1,0.1
		c-0.1,1.9-0.1,3.6,0,4.9L112.4,54.9z M117.1,51.5c-0.5,1.3-0.6,2.7-0.5,4.2v0.1c0.1,1.6,0.6,2.7,1.5,3.4c0.3,0.2,0.5,0.3,0.7,0.3
		c0.6-0.1,1.1-0.7,1.4-2.1c0.2-0.8,0.3-1.9,0.1-3.2V54H120c-0.9,0.1-1.7-0.4-2.4-1.4c-0.2-0.5-0.4-0.9-0.4-1.3L117.1,51.5z
		 M117.9,50.4L117.9,50.4c0.1,0.7,0.3,1.2,0.7,1.8c0.1,0.1,0.3,0.3,0.5,0.5c0.4,0.2,0.7,0.3,0.9,0.3h0.1c-0.1-0.7-0.3-1.2-0.4-1.7
		c-0.4-1-0.9-1.5-1.4-1.5h-0.1C118,49.8,117.9,50,117.9,50.4z M122.2,52.2L122.2,52.2C122.2,52.3,122.2,52.3,122.2,52.2z"/>
	<path fill="#78909C" d="M136.3,55.1c0.2,2.4-0.3,3.6-1.6,3.6c-0.8,0-1.5-0.3-2.1-1s-1-2-1.2-3.8c0-0.5-0.1-1.2-0.1-2
		c0-0.9-0.1-1.5-0.1-1.8c0-0.2-0.1-0.4-0.1-0.3s-0.1,0.1-0.2,0.3c-0.8,2.6-1.1,5.4-0.9,8.5c0,0.2-0.1,0.3-0.3,0.3
		c-0.8,0-1.3-0.5-1.5-1.3c-0.2-1.6-0.5-3.7-0.9-6.3c0-0.3-0.1-0.4-0.2-0.4c-0.1,0-0.2,0.1-0.3,0.3c-1,2.6-1.4,5.4-1.3,8.4
		c0,0.2-0.1,0.3-0.3,0.3c-0.7-0.1-1.1-0.4-1.2-0.9c-0.2-0.7-0.3-1.7-0.4-2.8c-0.3-3.4-0.3-5.7-0.1-7c0.1-0.5,0.4-0.9,0.8-1.1
		c0.1-0.1,0.2-0.1,0.2-0.1s0.1,0.1,0.1,0.2c-0.1,1.8,0,4.3,0.3,7.7c0.3-2.5,0.8-4.6,1.7-6.2c0.2-0.4,0.5-0.7,0.7-0.7
		s0.4,0.1,0.6,0.2c0.4,0.3,0.7,1,1,2.1c0.1,0.6,0.3,1.6,0.4,3c0.2-2.2,0.6-4.1,1.3-5.8c0.2-0.5,0.5-0.7,0.7-0.8
		c0.2,0,0.4,0.1,0.6,0.3c0.5,0.5,0.9,1.3,0.9,2.5c0.1,2.2,0.2,3.4,0.2,3.8c0.2,2.2,0.6,3.3,1.2,3.5c0.4,0.1,0.7-0.2,1-1
		s0.5-1.6,0.5-2.6c0-0.3,0.1-0.3,0.2-0.1C136.1,54.3,136.2,54.6,136.3,55.1z"/>
	<path fill="#78909C" d="M141.2,46.8L141.2,46.8c0.1,0,0.1,0,0.2,0.1c0,3.1,0,5.6,0.2,7.3c0.1,1.5,0.4,2.5,0.9,3.1
		c0.2,0.1,0.3,0.2,0.4,0.1h0.1c0.4,0,0.8-0.8,1.2-2.4c0.1-0.2,0.1-0.7,0.1-1.4h0.1c0.3,0.3,0.5,0.6,0.5,0.9V55
		c0.2,1.7-0.2,2.7-1,3.2c-0.1,0.1-0.3,0.1-0.5,0.2c-1.1,0.1-2-0.5-2.7-1.9c-0.1-0.3-0.3-0.9-0.5-2c0-0.3,0-0.6-0.1-1l0,0
		c-1.6,0.2-2.4,0.4-2.4,0.5c0.4,2.8,0.6,4.4,0.6,4.8c0,0.1,0,0.1-0.1,0.2h-0.1c-0.9,0-1.3-0.4-1.4-1.1c-0.1-0.5-0.2-1.2-0.3-1.9
		l-0.1-1.1c-0.3-2.7-0.2-4.9,0.1-6.7c0.3-0.5,0.6-0.8,0.9-0.8h0.1c0,0,0.1,0,0.1,0.1c-0.1,1.9-0.1,3.6,0,4.9v0.3h0.1
		c1.5-0.3,2.3-0.4,2.5-0.4c0-3.1,0.1-4.7,0.4-4.7C140.7,47,141,46.8,141.2,46.8z"/>
	<path fill="#78909C" d="M150.7,51.5c0,0.4,0.1,0.7,0.1,1c0.1,1.5,0,2.6-0.5,3.5c-0.4,0.9-1.1,1.4-1.9,1.5c-1,0.1-1.9-0.3-2.6-1.3
		c-0.6-0.8-1-1.8-1.1-2.9c-0.1-1,0-2.1,0.3-3.2c0.3-1.3,0.9-2.2,1.6-2.7c0.3-0.2,0.7-0.1,1,0.2c0.5-0.1,1,0.1,1.5,0.6
		c0.6,0.6,1,1.4,1.3,2.5c0.1-0.1,0.3-0.2,0.5-0.4s0.2-0.2,0.3,0C151.2,50.6,151.1,51.1,150.7,51.5z M149.5,52.1
		c-0.7,0.1-1.3-0.1-1.9-0.6c-0.5-0.4-0.8-1-0.9-1.7c-0.4,1.1-0.5,2.4-0.4,3.8c0.1,1,0.3,1.8,0.7,2.5c0.3,0.5,0.6,0.8,0.9,0.8
		c0.5,0.1,0.9-0.4,1.2-1.3C149.5,54.6,149.6,53.4,149.5,52.1z M147.8,48.2c-0.2,0-0.3,0.2-0.3,0.6c0,0.5,0.2,0.9,0.6,1.4
		c0.4,0.5,0.8,0.8,1.3,0.8C149,49.2,148.5,48.3,147.8,48.2z"/>
	<path fill="#78909C" d="M98.9,66.4c1.1-0.1,2-0.1,2.6,0v0.1c-0.1,0.3-0.3,0.6-0.5,0.8c-0.2,0.1-0.3,0.1-0.5,0.2
		c-2.7,0.2-4.1,0.5-4.2,0.7c-0.2,0.2-0.1,0.4,0,0.7c0.2,0.3,0.6,1.1,1.4,2.3c1.1,1.8,2,3.6,2.9,5.7c0.3,0.8,0.7,1.7,1.1,2.9
		c0.2,0.7,0.3,1.2,0.3,1.3l0,0c0.3-0.3,0.5-0.5,0.5-0.5h0.1c0,0,0,0,0,0.1c0,0.4-0.1,0.9-0.5,1.3l0.1,0.9c0.2,2.4-0.2,4-1.4,4.9
		c-0.3,0.2-0.6,0.3-0.9,0.3h-0.1c-1.3,0.1-2.4-0.7-3.2-2.5c-0.3-0.7-0.4-1.3-0.5-1.9c-0.1-1.4,0.1-2.8,0.6-4.4l0.4-0.8
		c0.4-0.6,0.8-1,1.2-1c0.3,0,0.5,0.1,0.7,0.4V78v0.1c0,0.2,0,0.4-0.2,0.6c0,0.1,0,0.2,0,0.4l0,0c0.1,0.6,0.4,1.3,1.1,1.9
		c0.3,0.2,0.6,0.3,0.8,0.3c0-0.4-0.4-1.5-1.1-3.3c-0.8-2-1.6-3.7-2.5-5.1c-1.4-2.3-2.2-3.6-2.3-4.1l-0.2-0.5c0-0.5,0.1-0.9,0.4-1.2
		c0.3-0.3,0.8-0.5,1.6-0.6C97.4,66.6,98.2,66.5,98.9,66.4z M98.1,80.3c-0.4,1.2-0.5,2.4-0.4,3.8c0.1,1.5,0.6,2.6,1.4,3.2
		c0.2,0.1,0.3,0.1,0.4,0.1h0.1c0.6-0.1,1.1-0.9,1.3-2.5c0.1-0.6,0.1-1.2,0-1.8v-0.4h-0.2c-0.9,0.1-1.6-0.4-2.3-1.4
		C98.3,80.9,98.2,80.6,98.1,80.3L98.1,80.3z"/>
	<path fill="#78909C" d="M105.5,84c0.3,1.3,0.7,2.1,1.3,2.3c0.2,0.1,0.4,0.1,0.6,0.1c0.7-0.1,1.4-0.4,2-1.1s1.1-1.6,1.3-2.7
		c0-0.1,0.1-0.2,0.1-0.2s0.1,0,0.1,0.1c0.1,0.3,0.1,0.7,0.1,1c-0.1,1-0.4,1.9-1,2.6s-1.3,1-2.2,1.1c-0.4,0-0.9,0-1.3-0.1
		c-0.6-0.2-1.2-0.6-1.7-1.3c-0.6-0.8-1-1.8-1.1-2.9c0-0.5,0-0.9,0-1.4c0.1-1.5,0.5-2.7,1-3.6c0.5-0.8,1.1-1.3,1.8-1.3
		c0.3,0,0.6,0,0.9,0.2c0.9,0.5,1.3,1.3,1.4,2.4c0,0.4,0,0.8,0,1.2c-0.1,1-0.6,1.9-1.2,2.5C107,83.4,106.3,83.8,105.5,84z
		 M105.4,83.4c0.8-0.3,1.5-0.9,1.9-2c0.4-0.9,0.5-1.8,0.4-2.7c-0.1-0.7-0.2-1.1-0.5-1.2c-0.4-0.1-0.8,0.4-1.2,1.3
		c-0.4,1-0.7,2.1-0.7,3.4C105.3,82.7,105.4,83.1,105.4,83.4z"/>
	<path fill="#78909C" d="M116.1,83.8c-0.6,1.1-1.3,1.9-2.2,2.6c-0.4,0.3-0.7,0.4-0.9,0.4s-0.3-0.1-0.5-0.2c-0.3-0.5-0.2-1.1,0.4-1.9
		c0.5-0.8,1.2-1.3,1.9-1.6c0.9-1.5,1.3-2.9,1.1-4.3c-0.1-1.1-0.5-1.7-1.3-1.6c-0.6,0.1-1.2,0.5-1.8,1.3c-0.6,0.8-1,1.8-1.2,3
		c0,0.2-0.1,0.3-0.3,0.1c-0.3-0.4-0.4-1-0.3-1.9c0.1-1,0.4-1.8,1-2.5s1.2-1.1,1.9-1.2c0.8-0.1,1.5,0.3,2.1,1
		c0.5,0.6,0.9,1.4,0.9,2.4c0.1,1.1-0.1,2.3-0.6,3.6c1.2,0.4,1.8,1.6,2,3.6c0.3,2.8-0.4,5.2-2,7.3c-0.6,0.8-1.2,1.2-1.9,1.2
		c-0.7,0.1-1.2-0.2-1.7-0.9c-0.4-0.5-0.6-1.2-0.7-1.9c-0.2-1.7,0.6-3.3,2.3-4.8c0.4-0.3,0.7-0.4,1.2-0.4c0.2,0,0.3,0.1,0.1,0.2
		c-0.9,0.9-1.5,2-1.9,3.1c-0.4,1-0.5,1.9-0.4,2.6s0.3,1,0.7,0.9s0.9-0.4,1.4-1.2c0.5-0.8,1-1.7,1.3-2.9c0.4-1.6,0.6-2.9,0.5-4.1
		C117.1,84.7,116.7,84,116.1,83.8z"/>
	<path fill="#78909C" d="M120.2,74.5l0.2,0.1c0,2.1,0,3.5,0.1,4.3c0.1,1.2,0.2,1.9,0.2,2.1v0.1c1-0.6,1.7-2.1,2.1-4.2
		c0.2-1.2,0.2-2,0.2-2.6h0.1l0,0c0.4,0,0.6,0.3,0.7,0.9c0.1,1-0.1,2.4-0.6,4.1c-0.3,0.8-0.8,1.6-1.4,2.5c0,0.5,0.3,1.2,0.8,2.2
		c0.4,0.6,1,0.9,1.8,0.7c0.8-0.2,1.4-1.1,1.9-2.9l0.3-1.2l0,0c0.2,0.1,0.4,0.4,0.4,0.8c0.2,1.8-0.3,3.2-1.5,4
		c-0.4,0.2-0.8,0.3-1.1,0.4c-1.2,0.1-2.2-0.5-3-1.7c-0.2-0.4-0.4-0.7-0.4-0.9l0,0v0.1c0,0.4,0.3,1.3,0.7,2.9c0,0.1-0.1,0.2-0.2,0.2
		c-0.4-0.1-0.8-0.3-1.2-0.8c-0.3-0.6-0.6-1.6-0.7-3l-0.2-2c-0.2-1.7-0.2-3.4-0.1-5c0.2-0.4,0.4-0.8,0.6-0.9
		C119.9,74.6,120.1,74.5,120.2,74.5z"/>
	<path fill="#78909C" d="M133,79c0,0.4,0.1,0.7,0.1,1c0.1,1.5,0,2.6-0.5,3.5c-0.4,0.9-1.1,1.4-1.9,1.5c-1,0.1-1.9-0.3-2.6-1.3
		c-0.6-0.8-1-1.8-1.1-2.9c-0.1-1,0-2.1,0.3-3.2c0.3-1.3,0.9-2.2,1.6-2.7c0.3-0.2,0.7-0.1,1,0.2c0.5-0.1,1,0.1,1.5,0.6
		c0.6,0.6,1,1.4,1.3,2.5c0.1-0.1,0.3-0.2,0.5-0.4c0.2-0.2,0.2-0.2,0.3,0C133.5,78.1,133.3,78.5,133,79z M131.8,79.6
		c-0.7,0.1-1.3-0.1-1.9-0.6c-0.5-0.4-0.8-1-0.9-1.7c-0.4,1.1-0.5,2.4-0.4,3.8c0.1,1,0.3,1.8,0.7,2.5c0.3,0.5,0.6,0.8,0.9,0.8
		c0.5,0.1,0.9-0.4,1.2-1.3C131.8,82,131.9,80.9,131.8,79.6z M130.1,75.7c-0.2,0-0.3,0.2-0.3,0.6c0,0.5,0.2,0.9,0.6,1.4
		c0.4,0.5,0.8,0.8,1.3,0.8C131.3,76.6,130.7,75.7,130.1,75.7z"/>
	<path fill="#78909C" d="M139.7,73.4L139.7,73.4c0.1,0,0.1,0,0.1,0v0.1c0,0.6-0.1,1.1-0.1,1.5c-0.1,1.3,0,2.6,0.1,4
		c0.2,2.2,0.6,3.6,1.2,4c0.2,0.1,0.4,0.2,0.6,0.2c0.7-0.1,1.1-1.6,1.1-4.5l0.1-4c0-0.3,0.1-0.5,0.3-0.7s0.3-0.3,0.4-0.4
		c0.2-0.1,0.3-0.2,0.4-0.2h0.1c0.1,0,0.1,0,0.2,0.1c-0.1,2.2-0.1,4,0.1,5.6c0.2,1.9,0.5,3.1,0.9,3.5c0.1,0.1,0.3,0.2,0.4,0.1h0.1
		c0.3,0,0.6-0.5,0.8-1.4c0.1-0.4,0.2-0.9,0.3-1.5c0-0.3,0-0.5,0-0.7l0,0l0,0c0.2,0.1,0.3,0.3,0.3,0.5c0.1,0.2,0.2,0.5,0.2,0.7
		c0.1,1.2,0,2.1-0.4,2.8c-0.3,0.4-0.7,0.6-1.2,0.7c-1,0.1-1.7-0.5-2.3-1.9l0,0c0,0.2-0.1,0.6-0.3,1.2c-0.5,0.9-1.1,1.4-1.9,1.5
		c-0.9,0.1-1.5-0.4-2-1.5c-0.2,0.9-0.7,1.4-1.5,1.5c-1,0.1-1.7-0.5-2.3-1.7c-0.1-0.2-0.2-0.5-0.3-1c-0.1-0.7-0.2-1.5-0.3-2.2v-0.1
		c-0.1-1.2-0.1-2.5-0.1-4c0-0.3,0.1-0.5,0.3-0.7s0.3-0.3,0.4-0.4c0.2-0.1,0.3-0.2,0.4-0.2h0.1c0.1,0,0.1,0,0.2,0.1
		c-0.1,2.2-0.1,4,0.1,5.6c0.2,1.9,0.5,3.1,0.9,3.5c0.1,0.1,0.3,0.2,0.4,0.1h0.1c0.2,0,0.5-0.4,0.7-1c0.1-0.3,0.2-0.7,0.3-1.4
		c-0.1-0.4-0.1-0.8-0.1-1.3c-0.2-1.8-0.1-3.6,0.3-5.4C138.9,73.8,139.2,73.4,139.7,73.4z"/>
	<path fill="#78909C" d="M160.2,78.7c0.2,2.4-0.3,3.6-1.6,3.6c-0.8,0-1.5-0.3-2.1-1s-1-2-1.2-3.8c0-0.5-0.1-1.2-0.1-2
		c0-0.9-0.1-1.5-0.1-1.8c0-0.2-0.1-0.4-0.1-0.3c-0.1,0-0.1,0.1-0.2,0.3c-0.8,2.6-1.1,5.4-0.9,8.5c0,0.2-0.1,0.3-0.3,0.3
		c-0.8,0-1.3-0.5-1.5-1.3c-0.2-1.6-0.5-3.7-0.9-6.3c0-0.3-0.1-0.4-0.2-0.4s-0.2,0.1-0.3,0.3c-1,2.6-1.4,5.4-1.3,8.4
		c0,0.2-0.1,0.3-0.3,0.3c-0.7-0.1-1.1-0.4-1.2-0.9c-0.2-0.7-0.3-1.7-0.4-2.8c-0.3-3.4-0.3-5.7-0.1-7c0.1-0.5,0.4-0.9,0.8-1.1
		c0.1-0.1,0.2-0.1,0.2-0.1s0.1,0.1,0.1,0.2c-0.1,1.8,0,4.3,0.3,7.7c0.3-2.5,0.8-4.6,1.7-6.2c0.2-0.4,0.5-0.7,0.7-0.7
		s0.4,0.1,0.6,0.2c0.4,0.3,0.7,1,1,2.1c0.1,0.6,0.3,1.6,0.4,3c0.2-2.2,0.6-4.1,1.3-5.8c0.2-0.5,0.5-0.7,0.7-0.8
		c0.2,0,0.4,0.1,0.6,0.3c0.5,0.5,0.9,1.3,0.9,2.5c0.1,2.2,0.2,3.4,0.2,3.8c0.2,2.2,0.6,3.3,1.2,3.5c0.4,0.1,0.7-0.2,1-1
		s0.5-1.6,0.5-2.6c0-0.3,0.1-0.3,0.2-0.1C160,77.9,160.1,78.3,160.2,78.7z"/>
	<path fill="#78909C" d="M166,76c0,0.4,0.1,0.7,0.1,1c0.1,1.5,0,2.6-0.5,3.5c-0.4,0.9-1.1,1.4-1.9,1.5c-1,0.1-1.9-0.3-2.6-1.3
		c-0.6-0.8-1-1.8-1.1-2.9c-0.1-1,0-2.1,0.3-3.2c0.3-1.3,0.9-2.2,1.6-2.7c0.3-0.2,0.7-0.1,1,0.2c0.5-0.1,1,0.1,1.5,0.6
		c0.6,0.6,1,1.4,1.3,2.5c0.1-0.1,0.3-0.2,0.5-0.4c0.2-0.2,0.2-0.2,0.3,0C166.6,75.1,166.4,75.5,166,76z M164.8,76.5
		c-0.7,0.1-1.3-0.1-1.9-0.6c-0.5-0.4-0.8-1-0.9-1.7c-0.4,1.1-0.5,2.4-0.4,3.8c0.1,1,0.3,1.8,0.7,2.5c0.3,0.5,0.6,0.8,0.9,0.8
		c0.5,0.1,0.9-0.4,1.2-1.3C164.9,79,165,77.9,164.8,76.5z M163.1,72.7c-0.2,0-0.3,0.2-0.3,0.6c0,0.5,0.2,0.9,0.6,1.4
		c0.4,0.5,0.8,0.8,1.3,0.8C164.3,73.6,163.8,72.7,163.1,72.7z"/>
	<path fill="#78909C" d="M169.4,60c0.5,0,1,0.4,1.5,1.3c0.3,0.7,0.5,1.7,0.7,2.8c0.2,2.2,0,4.4-0.7,6.6c-0.1,0.3-0.2,0.6-0.3,0.9
		l0,0c0.2-0.1,0.4-0.2,0.6-0.2c0.9-0.1,1.7,0.6,2.5,1.9c0.5,1,0.8,2.1,0.9,3.3c0.2,1.9-0.3,3.3-1.4,4.4c-0.5,0.4-0.9,0.6-1.4,0.6
		h-0.1c-0.5,0-0.9-0.1-1.3-0.4c0.1,0.4,0.2,0.8,0.3,1.2c0,0.1-0.1,0.1-0.1,0.1l0,0c-0.2,0-0.5-0.1-0.9-0.4c-0.4-0.4-0.6-0.9-0.6-1.5
		c-0.3-1.8-0.6-3.8-0.8-6l-0.2-1.8c0,0,0-0.1,0-0.2v-0.1l-0.1-1.1c-0.2-1.9-0.2-4.2,0-7.1c0.1-0.8,0.2-1.4,0.3-1.7
		C168.3,61,168.7,60.1,169.4,60z M169.1,72.1l0.1,0.6c1.1-2.1,1.4-5.1,1.1-8.9c-0.1-1.6-0.4-2.4-0.6-2.4c-0.3,0-0.5,1.4-0.7,4.2
		C168.9,67.5,168.9,69.7,169.1,72.1z M169.6,77.1L169.6,77.1c0.2,1.8,0.6,3,1.5,3.6c0.2,0.1,0.4,0.2,0.6,0.2l0,0
		c0.6-0.1,1-0.7,1.2-2.1c0.1-0.6,0.1-1.3,0-1.9c-0.2-1.7-0.6-3.1-1.3-4.1c-0.3-0.3-0.5-0.5-0.8-0.4c-0.7,0.1-1.2,1-1.3,2.8
		C169.6,75.9,169.6,76.5,169.6,77.1z"/>
	<path fill="#78909C" d="M180.8,69L180.8,69c0.1,0,0.1,0,0.2,0.1c0,3.1,0,5.6,0.2,7.3c0.1,1.5,0.4,2.5,0.9,3.1
		c0.2,0.1,0.3,0.2,0.4,0.1h0.1c0.4,0,0.8-0.8,1.2-2.4c0.1-0.2,0.1-0.7,0.1-1.4h0.1c0.3,0.3,0.5,0.6,0.5,0.9v0.5
		c0.2,1.7-0.2,2.7-1,3.2c-0.1,0.1-0.3,0.1-0.5,0.2c-1.1,0.1-2-0.5-2.7-1.9c-0.1-0.3-0.3-0.9-0.5-2c0-0.3,0-0.6-0.1-1l0,0
		c-1.6,0.2-2.4,0.4-2.4,0.5c0.4,2.8,0.6,4.4,0.6,4.8c0,0.1,0,0.1-0.1,0.2h-0.1c-0.9,0-1.3-0.4-1.4-1.1c-0.1-0.5-0.2-1.2-0.3-1.9
		l-0.1-1.1c-0.3-2.7-0.2-4.9,0.1-6.7c0.3-0.5,0.6-0.8,0.9-0.8h0.1c0,0,0.1,0,0.1,0.1c-0.1,1.9-0.1,3.6,0,4.9v0.3h0.1
		c1.5-0.3,2.3-0.4,2.5-0.4c0-3.1,0.1-4.7,0.4-4.7C180.3,69.2,180.6,69,180.8,69z"/>
	<path fill="#78909C" d="M190.3,73.7c0,0.4,0.1,0.7,0.1,1c0.1,1.5,0,2.6-0.5,3.5c-0.4,0.9-1.1,1.4-1.9,1.5c-1,0.1-1.9-0.3-2.6-1.3
		c-0.6-0.8-1-1.8-1.1-2.9c-0.1-1,0-2.1,0.3-3.2c0.3-1.3,0.9-2.2,1.6-2.7c0.3-0.2,0.7-0.1,1,0.2c0.5-0.1,1,0.1,1.5,0.6
		c0.6,0.6,1,1.4,1.3,2.5c0.1-0.1,0.3-0.2,0.5-0.4c0.2-0.2,0.2-0.2,0.3,0C190.8,72.9,190.7,73.3,190.3,73.7z M189.1,74.3
		c-0.7,0.1-1.3-0.1-1.9-0.6c-0.5-0.4-0.8-1-0.9-1.7c-0.4,1.1-0.5,2.4-0.4,3.8c0.1,1,0.3,1.8,0.7,2.5c0.3,0.5,0.6,0.8,0.9,0.8
		c0.5,0.1,0.9-0.4,1.2-1.3C189.2,76.8,189.2,75.6,189.1,74.3z M187.4,70.5c-0.2,0-0.3,0.2-0.3,0.6c0,0.5,0.2,0.9,0.6,1.4
		c0.4,0.5,0.8,0.8,1.3,0.8C188.6,71.4,188.1,70.5,187.4,70.5z"/>
	<path fill="#78909C" d="M194.3,73.6c-0.1-0.8-0.2-1.7-0.3-2.8c-0.6-6.3-0.7-11.5-0.4-15.7c0.1-0.8,0.4-1.3,0.9-1.5
		c0.1-0.1,0.2,0,0.2,0.2c-0.1,4.2,0.1,9.4,0.7,15.6c0.2,2.2,0.4,4.2,0.6,5.9c0,0.1,0,0.2,0,0.2s-0.1,0.1-0.2,0
		C195,75.3,194.5,74.7,194.3,73.6z M196.7,78.2c0,0.9-0.3,1.3-1,1.2c-0.6-0.1-1-0.5-1.1-1.2c0-0.3,0-0.7,0.2-1.1s0.4-0.5,0.8-0.5
		c0.3,0,0.6,0.2,0.8,0.5C196.6,77.5,196.7,77.8,196.7,78.2z"/>
</g>
<g>
	<g>
		<path fill="#90A4AE" d="M48.7,56.8c0,0-1.1-0.2-3-0.6c-1.9-0.5-4.6-1.2-7.7-2.4c-1.6-0.6-3.2-1.3-4.9-2.1s-3.5-1.8-5.3-2.9
			c-0.9-0.5-1.8-1.2-2.7-1.8c-0.9-0.7-1.8-1.3-2.6-2l-1.3-1L20,42.9c-0.8-0.7-1.6-1.5-2.4-2.3s-1.5-1.7-2.3-2.5
			c-0.7-0.9-1.4-1.7-2-2.6c-0.6-0.9-1.3-1.8-1.8-2.7c-0.6-0.9-1.1-1.8-1.6-2.8c-0.5-0.9-1-1.9-1.3-2.8c-0.4-0.9-0.8-1.9-1-2.8
			c-0.3-0.9-0.6-1.8-0.8-2.7c-0.2-0.9-0.4-1.7-0.6-2.6c-0.2-0.8-0.3-1.6-0.4-2.4c-0.1-0.8-0.2-1.5-0.3-2.2C5.4,13.1,5.3,12,5.3,11
			c0-2,0-3.1,0-3.1h0.9c0,0,0.1,1.1,0.3,3c0.1,1,0.3,2.1,0.5,3.4s0.6,2.8,0.9,4.4c0.4,1.6,0.9,3.3,1.5,5c0.3,0.9,0.7,1.8,1,2.7
			c0.3,0.9,0.8,1.8,1.2,2.7c0.4,0.9,0.9,1.8,1.4,2.7s1.1,1.8,1.6,2.7c0.6,0.9,1.2,1.7,1.9,2.6c0.7,0.8,1.4,1.7,2.1,2.5
			s1.5,1.6,2.3,2.3l1.2,1.1l1.2,1.1c0.8,0.7,1.7,1.3,2.5,2c0.9,0.6,1.7,1.2,2.6,1.8c1.7,1.2,3.4,2.1,5.1,3s3.3,1.7,4.8,2.3
			c3,1.3,5.6,2.2,7.5,2.7s2.9,0.7,2.9,0.7V56.8z"/>
	</g>
	<g>
		<g>
			<polygon fill="#90A4AE" points="11.5,17 10,17.6 6,7.9 2.9,17.9 1.4,17.4 5.8,3.2 			"/>
		</g>
	</g>
</g>
</svg>
